Coda-Caption-Light.ufo
<glyph name="exclam" format="1">
  <advance width="483"/>
  <unicode hex="0021"/>
  <outline>
    <contour>
      <point x="241" y="492" type="curve" smooth="yes"/>
      <point x="252" y="492"/>
      <point x="265" y="494"/>
      <point x="267" y="523" type="curve" smooth="yes"/>
      <point x="299" y="923"/>
      <point x="334" y="1406"/>
      <point x="334" y="1419" type="curve" smooth="yes"/>
      <point x="334" y="1503"/>
      <point x="320" y="1545"/>
      <point x="241" y="1545" type="curve" smooth="yes"/>
      <point x="163" y="1545"/>
      <point x="148" y="1503"/>
      <point x="148" y="1419" type="curve" smooth="yes"/>
      <point x="148" y="1405"/>
      <point x="180" y="923"/>
      <point x="215" y="523" type="curve" smooth="yes"/>
      <point x="217" y="494"/>
      <point x="230" y="492"/>
    </contour>
    <contour>
      <point x="244" y="-18" type="curve" smooth="yes"/>
      <point x="311" y="-18"/>
      <point x="376" y="26"/>
      <point x="376" y="120" type="curve" smooth="yes"/>
      <point x="376" y="210"/>
      <point x="306" y="258"/>
      <point x="238" y="258" type="curve" smooth="yes"/>
      <point x="172" y="258"/>
      <point x="107" y="213"/>
      <point x="107" y="120" type="curve" smooth="yes"/>
      <point x="107" y="30"/>
      <point x="176" y="-18"/>
    </contour>
  </outline>
</glyph>
<glyph name="quotedbl" format="1">
  <advance width="667"/>
  <unicode hex="0022"/>
  <outline>
    <contour>
      <point x="198" y="939" type="curve" smooth="yes"/>
      <point x="196" y="939"/>
      <point x="206" y="933"/>
      <point x="206" y="927" type="curve"/>
      <point x="201" y="899"/>
      <point x="272" y="1288"/>
      <point x="272" y="1367" type="curve" smooth="yes"/>
      <point x="272" y="1444"/>
      <point x="249" y="1481"/>
      <point x="197" y="1481" type="curve" smooth="yes"/>
      <point x="126" y="1481"/>
      <point x="120" y="1443"/>
      <point x="120" y="1349" type="curve" smooth="yes"/>
      <point x="120" y="1274"/>
      <point x="194" y="905"/>
      <point x="189" y="934" type="curve" smooth="yes"/>
      <point x="188" y="940"/>
      <point x="200" y="939"/>
    </contour>
    <contour>
      <point x="488" y="939" type="curve" smooth="yes"/>
      <point x="486" y="939"/>
      <point x="497" y="933"/>
      <point x="496" y="927" type="curve" smooth="yes"/>
      <point x="491" y="899"/>
      <point x="562" y="1288"/>
      <point x="562" y="1367" type="curve" smooth="yes"/>
      <point x="562" y="1444"/>
      <point x="539" y="1481"/>
      <point x="487" y="1481" type="curve" smooth="yes"/>
      <point x="416" y="1481"/>
      <point x="410" y="1443"/>
      <point x="410" y="1349" type="curve" smooth="yes"/>
      <point x="410" y="1274"/>
      <point x="484" y="905"/>
      <point x="479" y="934" type="curve" smooth="yes"/>
      <point x="478" y="940"/>
      <point x="490" y="939"/>
    </contour>
  </outline>
</glyph>
<glyph name="dollar" format="1">
  <advance width="1313"/>
  <unicode hex="0024"/>
  <outline>
    <component base="S"/>
    <contour>
      <point x="603" y="42" type="line"/>
      <point x="603" y="-273" type="line"/>
      <point x="693" y="-273" type="line"/>
      <point x="693" y="42" type="line"/>
    </contour>
    <contour>
      <point x="603" y="1736" type="line"/>
      <point x="603" y="1421" type="line"/>
      <point x="693" y="1421" type="line"/>
      <point x="693" y="1736" type="line"/>
    </contour>
  </outline>
</glyph>
<glyph name="percent" format="1">
  <advance width="2184"/>
  <unicode hex="0025"/>
  <outline>
    <contour>
      <point x="450" y="698" type="curve" smooth="yes"/>
      <point x="264" y="698"/>
      <point x="253" y="715"/>
      <point x="253" y="949" type="curve" smooth="yes"/>
      <point x="253" y="995"/>
      <point x="254" y="969"/>
      <point x="254" y="1034" type="curve" smooth="yes"/>
      <point x="254" y="1295"/>
      <point x="267" y="1296"/>
      <point x="469" y="1296" type="curve" smooth="yes"/>
      <point x="680" y="1296"/>
      <point x="680" y="1293"/>
      <point x="680" y="1030" type="curve" smooth="yes"/>
      <point x="680" y="945" type="line" smooth="yes"/>
      <point x="680" y="716"/>
      <point x="669" y="698"/>
    </contour>
    <contour>
      <point x="469" y="579" type="curve" smooth="yes"/>
      <point x="733" y="579"/>
      <point x="810" y="655"/>
      <point x="810" y="893" type="curve" smooth="yes"/>
      <point x="810" y="996"/>
      <point x="810" y="1030"/>
      <point x="806" y="1103" type="curve" smooth="yes"/>
      <point x="791" y="1343"/>
      <point x="747" y="1414"/>
      <point x="469" y="1414" type="curve" smooth="yes"/>
      <point x="211" y="1414"/>
      <point x="132" y="1346"/>
      <point x="132" y="1100" type="curve" smooth="yes"/>
      <point x="132" y="999"/>
      <point x="132" y="968"/>
      <point x="136" y="897" type="curve" smooth="yes"/>
      <point x="149" y="651"/>
      <point x="189" y="579"/>
    </contour>
    <contour>
      <point x="1697" y="291" type="curve" smooth="yes"/>
      <point x="1511" y="291"/>
      <point x="1501" y="307"/>
      <point x="1501" y="541" type="curve" smooth="yes"/>
      <point x="1501" y="587"/>
      <point x="1502" y="561"/>
      <point x="1502" y="626" type="curve" smooth="yes"/>
      <point x="1502" y="887"/>
      <point x="1515" y="889"/>
      <point x="1716" y="889" type="curve" smooth="yes"/>
      <point x="1927" y="889"/>
      <point x="1927" y="885"/>
      <point x="1927" y="622" type="curve" smooth="yes"/>
      <point x="1927" y="537" type="line" smooth="yes"/>
      <point x="1927" y="308"/>
      <point x="1916" y="291"/>
    </contour>
    <contour>
      <point x="1716" y="172" type="curve" smooth="yes"/>
      <point x="1980" y="172"/>
      <point x="2057" y="246"/>
      <point x="2057" y="486" type="curve" smooth="yes"/>
      <point x="2057" y="585"/>
      <point x="2057" y="615"/>
      <point x="2054" y="686" type="curve" smooth="yes"/>
      <point x="2040" y="933"/>
      <point x="1997" y="1007"/>
      <point x="1716" y="1007" type="curve" smooth="yes"/>
      <point x="1458" y="1007"/>
      <point x="1380" y="938"/>
      <point x="1380" y="692" type="curve" smooth="yes"/>
      <point x="1380" y="593"/>
      <point x="1380" y="563"/>
      <point x="1383" y="492" type="curve" smooth="yes"/>
      <point x="1395" y="243"/>
      <point x="1435" y="172"/>
    </contour>
    <contour>
      <point x="828" y="7" type="line"/>
      <point x="974" y="7" type="line"/>
      <point x="1356" y="1564" type="line"/>
      <point x="1206" y="1564" type="line"/>
    </contour>
  </outline>
</glyph>
<glyph name="ampersand" format="1">
  <advance width="1454"/>
  <unicode hex="0026"/>
  <outline>
    <contour>
      <point x="642" y="-20" type="curve" smooth="yes"/>
      <point x="963" y="-20"/>
      <point x="1185" y="123"/>
      <point x="1185" y="350" type="curve" smooth="yes"/>
      <point x="1184" y="726" type="line"/>
      <point x="1316" y="727" type="line"/>
      <point x="1316" y="842" type="line"/>
      <point x="1185" y="842" type="line"/>
      <point x="1185" y="946" type="line"/>
      <point x="1039" y="946" type="line"/>
      <point x="1039" y="842" type="line"/>
      <point x="520" y="842" type="line" smooth="yes"/>
      <point x="424" y="842"/>
      <point x="377" y="890"/>
      <point x="373" y="1149" type="curve"/>
      <point x="373" y="1109" type="line" smooth="yes"/>
      <point x="373" y="1293"/>
      <point x="444" y="1352"/>
      <point x="699" y="1352" type="curve" smooth="yes"/>
      <point x="860" y="1352"/>
      <point x="942" y="1347"/>
      <point x="992" y="1320" type="curve" smooth="yes"/>
      <point x="1041" y="1292"/>
      <point x="1048" y="1274"/>
      <point x="1053" y="1183" type="curve"/>
      <point x="1166" y="1212" type="line"/>
      <point x="1166" y="1209"/>
      <point x="1165" y="1314"/>
      <point x="1165" y="1312" type="curve"/>
      <point x="1165" y="1484"/>
      <point x="991" y="1506"/>
      <point x="698" y="1506" type="curve" smooth="yes"/>
      <point x="314" y="1506"/>
      <point x="217" y="1407"/>
      <point x="217" y="1138" type="curve" smooth="yes"/>
      <point x="217" y="1040"/>
      <point x="235" y="940"/>
      <point x="284" y="875" type="curve" smooth="yes"/>
      <point x="302" y="853"/>
      <point x="332" y="837"/>
      <point x="355" y="825" type="curve"/>
      <point x="355" y="825" type="line"/>
      <point x="324" y="819"/>
      <point x="307" y="808"/>
      <point x="282" y="789" type="curve" smooth="yes"/>
      <point x="196" y="720"/>
      <point x="147" y="593"/>
      <point x="147" y="371" type="curve" smooth="yes"/>
      <point x="147" y="117"/>
      <point x="297" y="-20"/>
    </contour>
    <contour>
      <point x="640" y="125" type="curve" smooth="yes"/>
      <point x="401" y="125"/>
      <point x="303" y="214"/>
      <point x="303" y="406" type="curve" smooth="yes"/>
      <point x="303" y="664"/>
      <point x="306" y="727"/>
      <point x="469" y="727" type="curve" smooth="yes"/>
      <point x="1039" y="727" type="line"/>
      <point x="1039" y="377" type="line" smooth="yes"/>
      <point x="1039" y="209"/>
      <point x="892" y="125"/>
    </contour>
  </outline>
</glyph>
<glyph name="parenleft" format="1">
  <advance width="761"/>
  <unicode hex="0028"/>
  <outline>
    <contour>
      <point x="648" y="-238" type="curve"/>
      <point x="665" y="-122" type="line"/>
      <point x="393" y="-75"/>
      <point x="305" y="230"/>
      <point x="305" y="713" type="curve" smooth="yes"/>
      <point x="305" y="1196"/>
      <point x="393" y="1499"/>
      <point x="665" y="1546" type="curve"/>
      <point x="648" y="1662" type="line"/>
      <point x="261" y="1623"/>
      <point x="135" y="1226"/>
      <point x="135" y="714" type="curve" smooth="yes"/>
      <point x="135" y="201"/>
      <point x="261" y="-199"/>
    </contour>
  </outline>
</glyph>
<glyph name="parenright" format="1">
  <advance width="761"/>
  <unicode hex="0029"/>
  <outline>
    <contour>
      <point x="113" y="-238" type="line"/>
      <point x="500" y="-199"/>
      <point x="626" y="203"/>
      <point x="626" y="714" type="curve" smooth="yes"/>
      <point x="626" y="1226"/>
      <point x="500" y="1623"/>
      <point x="113" y="1662" type="curve"/>
      <point x="97" y="1546" type="line"/>
      <point x="369" y="1499"/>
      <point x="456" y="1196"/>
      <point x="456" y="713" type="curve" smooth="yes"/>
      <point x="456" y="230"/>
      <point x="369" y="-75"/>
      <point x="97" y="-122" type="curve"/>
    </contour>
  </outline>
</glyph>
<glyph name="plus" format="1">
  <advance width="981"/>
  <unicode hex="002B"/>
  <outline>
    <contour>
      <point x="418" y="241" type="line"/>
      <point x="561" y="241" type="line"/>
      <point x="561" y="601" type="line"/>
      <point x="864" y="601" type="line"/>
      <point x="864" y="745" type="line"/>
      <point x="561" y="745" type="line"/>
      <point x="561" y="1106" type="line"/>
      <point x="418" y="1106" type="line"/>
      <point x="418" y="745" type="line"/>
      <point x="117" y="745" type="line"/>
      <point x="117" y="601" type="line"/>
      <point x="418" y="601" type="line"/>
    </contour>
  </outline>
</glyph>
<glyph name="period" format="1">
  <advance width="492"/>
  <unicode hex="002E"/>
  <outline>
    <contour>
      <point x="249" y="-30" type="curve" smooth="yes"/>
      <point x="315" y="-30"/>
      <point x="380" y="15"/>
      <point x="380" y="109" type="curve" smooth="yes"/>
      <point x="380" y="198"/>
      <point x="310" y="246"/>
      <point x="242" y="246" type="curve" smooth="yes"/>
      <point x="176" y="246"/>
      <point x="112" y="202"/>
      <point x="112" y="109" type="curve" smooth="yes"/>
      <point x="112" y="18"/>
      <point x="181" y="-30"/>
    </contour>
  </outline>
</glyph>
<glyph name="zero" format="1">
  <advance width="1281"/>
  <unicode hex="0030"/>
  <outline>
    <contour>
      <point x="641" y="124" type="curve" smooth="yes"/>
      <point x="413" y="124"/>
      <point x="320" y="180"/>
      <point x="312" y="311" type="curve" smooth="yes"/>
      <point x="302" y="473"/>
      <point x="300" y="559"/>
      <point x="300" y="732" type="curve" smooth="yes"/>
      <point x="300" y="904"/>
      <point x="304" y="989"/>
      <point x="313" y="1152" type="curve" smooth="yes"/>
      <point x="321" y="1297"/>
      <point x="423" y="1357"/>
      <point x="641" y="1357" type="curve" smooth="yes"/>
      <point x="857" y="1357"/>
      <point x="959" y="1297"/>
      <point x="968" y="1152" type="curve" smooth="yes"/>
      <point x="977" y="989"/>
      <point x="981" y="904"/>
      <point x="981" y="732" type="curve" smooth="yes"/>
      <point x="981" y="559"/>
      <point x="979" y="473"/>
      <point x="969" y="311" type="curve" smooth="yes"/>
      <point x="961" y="180"/>
      <point x="868" y="124"/>
    </contour>
    <contour>
      <point x="640" y="-13" type="curve" smooth="yes"/>
      <point x="1153" y="-13"/>
      <point x="1128" y="263"/>
      <point x="1128" y="840" type="curve" smooth="yes"/>
      <point x="1128" y="767" type="line" smooth="yes"/>
      <point x="1128" y="1259"/>
      <point x="1094" y="1487"/>
      <point x="640" y="1487" type="curve" smooth="yes"/>
      <point x="165" y="1487"/>
      <point x="153" y="1241"/>
      <point x="153" y="706" type="curve" smooth="yes"/>
      <point x="153" y="763" type="line" smooth="yes"/>
      <point x="154" y="239"/>
      <point x="150" y="-13"/>
    </contour>
  </outline>
</glyph>
<glyph name="one" format="1">
  <advance width="649"/>
  <unicode hex="0031"/>
  <outline>
    <contour>
      <point x="307" y="0" type="line"/>
      <point x="452" y="0" type="line"/>
      <point x="452" y="1474" type="line"/>
      <point x="329" y="1474" type="line"/>
      <point x="295" y="1372"/>
      <point x="224" y="1324"/>
      <point x="125" y="1319" type="curve"/>
      <point x="125" y="1246" type="line"/>
      <point x="307" y="1246" type="line"/>
    </contour>
  </outline>
</glyph>
<glyph name="two" format="1">
  <advance width="1266"/>
  <unicode hex="0032"/>
  <outline>
    <contour>
      <point x="199" y="0" type="line"/>
      <point x="1028" y="0" type="line"/>
      <point x="1028" y="123" type="line"/>
      <point x="342" y="123" type="line"/>
      <point x="342" y="346"/>
      <point x="383" y="369"/>
      <point x="600" y="508" type="curve" smooth="yes"/>
      <point x="890" y="694"/>
      <point x="1052" y="739"/>
      <point x="1052" y="1092" type="curve" smooth="yes"/>
      <point x="1052" y="1409"/>
      <point x="939" y="1487"/>
      <point x="617" y="1487" type="curve" smooth="yes"/>
      <point x="313" y="1487"/>
      <point x="201" y="1406"/>
      <point x="201" y="1196" type="curve"/>
      <point x="200" y="1174" type="line"/>
      <point x="322" y="1134" type="line"/>
      <point x="332" y="1257"/>
      <point x="332" y="1280"/>
      <point x="381" y="1319" type="curve" smooth="yes"/>
      <point x="430" y="1358"/>
      <point x="523" y="1370"/>
      <point x="635" y="1370" type="curve" smooth="yes"/>
      <point x="765" y="1370"/>
      <point x="829" y="1348"/>
      <point x="863" y="1297" type="curve" smooth="yes"/>
      <point x="897" y="1246"/>
      <point x="913" y="1209"/>
      <point x="913" y="1100" type="curve" smooth="yes"/>
      <point x="913" y="785"/>
      <point x="804" y="791"/>
      <point x="532" y="615" type="curve" smooth="yes"/>
      <point x="331" y="487"/>
      <point x="199" y="435"/>
      <point x="199" y="121" type="curve" smooth="yes"/>
    </contour>
  </outline>
</glyph>
<glyph name="three" format="1">
  <advance width="1266"/>
  <unicode hex="0033"/>
  <outline>
    <contour>
      <point x="589" y="-13" type="curve" smooth="yes"/>
      <point x="899" y="-13"/>
      <point x="1068" y="32"/>
      <point x="1068" y="391" type="curve" smooth="yes"/>
      <point x="1068" y="719"/>
      <point x="979" y="737"/>
      <point x="900" y="761" type="curve"/>
      <point x="971" y="779"/>
      <point x="1058" y="780"/>
      <point x="1058" y="1143" type="curve" smooth="yes"/>
      <point x="1058" y="1390"/>
      <point x="924" y="1487"/>
      <point x="626" y="1487" type="curve" smooth="yes"/>
      <point x="245" y="1487"/>
      <point x="157" y="1413"/>
      <point x="158" y="1216" type="curve" smooth="yes"/>
      <point x="158" y="1172" type="line"/>
      <point x="285" y="1162" type="line"/>
      <point x="285" y="1301"/>
      <point x="296" y="1299"/>
      <point x="314" y="1318" type="curve" smooth="yes"/>
      <point x="352" y="1360"/>
      <point x="473" y="1369"/>
      <point x="626" y="1369" type="curve" smooth="yes"/>
      <point x="894" y="1369"/>
      <point x="911" y="1315"/>
      <point x="911" y="1106" type="curve" smooth="yes"/>
      <point x="911" y="868"/>
      <point x="907" y="826"/>
      <point x="849" y="826" type="curve" smooth="yes"/>
      <point x="481" y="826" type="line"/>
      <point x="490" y="697" type="line"/>
      <point x="856" y="694" type="line" smooth="yes"/>
      <point x="907" y="694"/>
      <point x="919" y="702"/>
      <point x="919" y="447" type="curve" smooth="yes"/>
      <point x="919" y="172"/>
      <point x="908" y="105"/>
      <point x="593" y="105" type="curve" smooth="yes"/>
      <point x="434" y="105"/>
      <point x="332" y="112"/>
      <point x="295" y="163" type="curve" smooth="yes"/>
      <point x="265" y="203"/>
      <point x="266" y="204"/>
      <point x="266" y="312" type="curve"/>
      <point x="139" y="299" type="line"/>
      <point x="138" y="227" type="line" smooth="yes"/>
      <point x="135" y="21"/>
      <point x="319" y="-13"/>
    </contour>
  </outline>
</glyph>
<glyph name="four" format="1">
  <advance width="1266"/>
  <unicode hex="0034"/>
  <outline>
    <contour>
      <point x="693" y="1474" type="line"/>
      <point x="146" y="521" type="line"/>
      <point x="146" y="411" type="line"/>
      <point x="817" y="411" type="line"/>
      <point x="817" y="0" type="line"/>
      <point x="969" y="0" type="line"/>
      <point x="969" y="1029" type="line"/>
      <point x="817" y="1029" type="line"/>
      <point x="817" y="509" type="line"/>
      <point x="300" y="509" type="line"/>
      <point x="407" y="721" type="line"/>
      <point x="851" y="1474" type="line"/>
    </contour>
  </outline>
</glyph>
<glyph name="six" format="1">
  <advance width="1266"/>
  <unicode hex="0036"/>
  <outline>
    <contour>
      <point x="710" y="-9" type="curve" smooth="yes"/>
      <point x="1084" y="-10"/>
      <point x="1162" y="92"/>
      <point x="1162" y="486" type="curve" smooth="yes"/>
      <point x="1162" y="874"/>
      <point x="1030" y="933"/>
      <point x="681" y="933" type="curve" smooth="yes"/>
      <point x="471" y="933"/>
      <point x="400" y="892"/>
      <point x="340" y="812" type="curve"/>
      <point x="341" y="1117" type="line" smooth="yes"/>
      <point x="342" y="1308"/>
      <point x="401" y="1367"/>
      <point x="663" y="1367" type="curve" smooth="yes"/>
      <point x="793" y="1367"/>
      <point x="913" y="1362"/>
      <point x="946" y="1330" type="curve" smooth="yes"/>
      <point x="979" y="1297"/>
      <point x="980" y="1244"/>
      <point x="980" y="1132" type="curve"/>
      <point x="1112" y="1139" type="line"/>
      <point x="1112" y="1281" type="line" smooth="yes"/>
      <point x="1111" y="1463"/>
      <point x="895" y="1484"/>
      <point x="665" y="1484" type="curve" smooth="yes"/>
      <point x="179" y="1484"/>
      <point x="187" y="1304"/>
      <point x="187" y="766" type="curve" smooth="yes"/>
      <point x="187" y="662" type="line" smooth="yes"/>
      <point x="187" y="93"/>
      <point x="215" y="-9"/>
    </contour>
    <contour>
      <point x="670" y="107" type="curve" smooth="yes"/>
      <point x="346" y="107"/>
      <point x="341" y="199"/>
      <point x="339" y="394" type="curve" smooth="yes"/>
      <point x="337" y="486" type="line" smooth="yes"/>
      <point x="335" y="695"/>
      <point x="320" y="797"/>
      <point x="671" y="797" type="curve" smooth="yes"/>
      <point x="1005" y="797"/>
      <point x="1019" y="745"/>
      <point x="1019" y="493" type="curve" smooth="yes"/>
      <point x="1019" y="351" type="line" smooth="yes"/>
      <point x="1019" y="172"/>
      <point x="995" y="107"/>
    </contour>
  </outline>
</glyph>
<glyph name="seven" format="1">
  <advance width="1266"/>
  <unicode hex="0037"/>
  <outline>
    <contour>
      <point x="412" y="0" type="line"/>
      <point x="569" y="0" type="line"/>
      <point x="1092" y="1323" type="line"/>
      <point x="1092" y="1474" type="line"/>
      <point x="211" y="1474" type="line"/>
      <point x="211" y="1344" type="line"/>
      <point x="946" y="1344" type="line"/>
    </contour>
  </outline>
</glyph>
<glyph name="colon" format="1">
  <advance width="531"/>
  <unicode hex="003A"/>
  <outline>
    <contour>
      <point x="266" y="139" type="curve" smooth="yes"/>
      <point x="333" y="139"/>
      <point x="401" y="188"/>
      <point x="401" y="283" type="curve" smooth="yes"/>
      <point x="401" y="378"/>
      <point x="333" y="427"/>
      <point x="265" y="427" type="curve" smooth="yes"/>
      <point x="199" y="427"/>
      <point x="134" y="380"/>
      <point x="134" y="283" type="curve" smooth="yes"/>
      <point x="134" y="186"/>
      <point x="199" y="139"/>
    </contour>
    <contour>
      <point x="268" y="925" type="curve" smooth="yes"/>
      <point x="335" y="925"/>
      <point x="401" y="973"/>
      <point x="401" y="1071" type="curve" smooth="yes"/>
      <point x="401" y="1166"/>
      <point x="333" y="1215"/>
      <point x="266" y="1215" type="curve" smooth="yes"/>
      <point x="199" y="1215"/>
      <point x="134" y="1168"/>
      <point x="134" y="1071" type="curve" smooth="yes"/>
      <point x="134" y="975"/>
      <point x="202" y="925"/>
    </contour>
  </outline>
</glyph>
<glyph name="semicolon" format="1">
  <advance width="557"/>
  <unicode hex="003B"/>
  <outline>
    <contour>
      <point x="181" y="-98" type="curve" smooth="yes"/>
      <point x="312" y="-98"/>
      <point x="429" y="89"/>
      <point x="429" y="257" type="curve" smooth="yes"/>
      <point x="429" y="345"/>
      <point x="375" y="426"/>
      <point x="294" y="426" type="curve" smooth="yes"/>
      <point x="203" y="426"/>
      <point x="153" y="356"/>
      <point x="153" y="279" type="curve" smooth="yes"/>
      <point x="153" y="200"/>
      <point x="212" y="131"/>
      <point x="294" y="132" type="curve"/>
      <point x="295" y="42"/>
      <point x="210" y="-32"/>
      <point x="121" y="-32" type="curve"/>
      <point x="121" y="-94" type="line"/>
      <point x="131" y="-97"/>
      <point x="151" y="-98"/>
    </contour>
    <contour>
      <point x="292" y="925" type="curve" smooth="yes"/>
      <point x="379" y="925"/>
      <point x="426" y="991"/>
      <point x="426" y="1071" type="curve" smooth="yes"/>
      <point x="426" y="1147"/>
      <point x="372" y="1217"/>
      <point x="292" y="1217" type="curve" smooth="yes"/>
      <point x="204" y="1217"/>
      <point x="158" y="1149"/>
      <point x="158" y="1071" type="curve" smooth="yes"/>
      <point x="158" y="995"/>
      <point x="210" y="925"/>
    </contour>
  </outline>
</glyph>
<glyph name="less" format="1">
  <advance width="934"/>
  <unicode hex="003C"/>
  <outline>
    <contour>
      <point x="794" y="269" type="line"/>
      <point x="794" y="456" type="line"/>
      <point x="283" y="763" type="line"/>
      <point x="794" y="1060" type="line"/>
      <point x="794" y="1256" type="line"/>
      <point x="116" y="803" type="line"/>
      <point x="116" y="704" type="line"/>
    </contour>
  </outline>
</glyph>
<glyph name="at" format="1">
  <advance width="2020"/>
  <unicode hex="0040"/>
  <outline>
    <contour>
      <point x="1017" y="-210" type="curve" smooth="yes"/>
      <point x="1260" y="-210"/>
      <point x="1416" y="-179"/>
      <point x="1592" y="-113" type="curve"/>
      <point x="1556" y="-15" type="line"/>
      <point x="1364" y="-84"/>
      <point x="1131" y="-105"/>
      <point x="1010" y="-105" type="curve" smooth="yes"/>
      <point x="481" y="-105"/>
      <point x="335" y="140"/>
      <point x="335" y="653" type="curve" smooth="yes"/>
      <point x="335" y="1170"/>
      <point x="504" y="1387"/>
      <point x="1040" y="1387" type="curve" smooth="yes"/>
      <point x="1612" y="1387"/>
      <point x="1685" y="1171"/>
      <point x="1685" y="643" type="curve" smooth="yes"/>
      <point x="1685" y="273"/>
      <point x="1685" y="314"/>
      <point x="1617" y="263" type="curve"/>
      <point x="1576" y="236"/>
      <point x="1522" y="235"/>
      <point x="1418" y="235" type="curve"/>
      <point x="1418" y="926" type="line" smooth="yes"/>
      <point x="1418" y="1095"/>
      <point x="1300" y="1185"/>
      <point x="1072" y="1185" type="curve" smooth="yes"/>
      <point x="823" y="1185"/>
      <point x="678" y="1166"/>
      <point x="678" y="980" type="curve" smooth="yes"/>
      <point x="678" y="948"/>
      <point x="681" y="925"/>
      <point x="689" y="888" type="curve"/>
      <point x="792" y="888" type="line"/>
      <point x="788" y="943"/>
      <point x="775" y="996"/>
      <point x="802" y="1030" type="curve" smooth="yes"/>
      <point x="835" y="1070"/>
      <point x="911" y="1077"/>
      <point x="1040" y="1077" type="curve" smooth="yes"/>
      <point x="1234" y="1077"/>
      <point x="1287" y="1059"/>
      <point x="1287" y="914" type="curve" smooth="yes"/>
      <point x="1287" y="698" type="line"/>
      <point x="1120" y="728"/>
      <point x="1068" y="740"/>
      <point x="956" y="740" type="curve" smooth="yes"/>
      <point x="753" y="740"/>
      <point x="640" y="657"/>
      <point x="639" y="438" type="curve" smooth="yes"/>
      <point x="638" y="196"/>
      <point x="749" y="133"/>
      <point x="1014" y="133" type="curve" smooth="yes"/>
      <point x="1254" y="133"/>
      <point x="1309" y="196"/>
      <point x="1342" y="306" type="curve"/>
      <point x="1353" y="226"/>
      <point x="1403" y="163"/>
      <point x="1482" y="164" type="curve" smooth="yes"/>
      <point x="1797" y="164"/>
      <point x="1815" y="277"/>
      <point x="1815" y="627" type="curve" smooth="yes"/>
      <point x="1815" y="1265"/>
      <point x="1675" y="1493"/>
      <point x="1020" y="1493" type="curve" smooth="yes"/>
      <point x="415" y="1493"/>
      <point x="202" y="1213"/>
      <point x="202" y="620" type="curve" smooth="yes"/>
      <point x="202" y="14"/>
      <point x="418" y="-210"/>
    </contour>
    <contour>
      <point x="1037" y="219" type="curve" smooth="yes"/>
      <point x="783" y="219"/>
      <point x="758" y="268"/>
      <point x="758" y="403" type="curve" smooth="yes"/>
      <point x="758" y="645"/>
      <point x="807" y="633"/>
      <point x="984" y="634" type="curve" smooth="yes"/>
      <point x="1287" y="636" type="line"/>
      <point x="1286" y="473" type="line" smooth="yes"/>
      <point x="1285" y="343"/>
      <point x="1211" y="219"/>
    </contour>
  </outline>
</glyph>
<glyph name="B" format="1">
  <advance width="1342"/>
  <unicode hex="0042"/>
  <outline>
    <contour>
      <point x="688" y="1480" type="move" name="top"/>
    </contour>
    <contour>
      <point x="193" y="0" type="line"/>
      <point x="696" y="0" type="line" smooth="yes"/>
      <point x="1132" y="0"/>
      <point x="1209" y="15"/>
      <point x="1209" y="424" type="curve" smooth="yes"/>
      <point x="1209" y="621"/>
      <point x="1182" y="772"/>
      <point x="956" y="794" type="curve"/>
      <point x="956" y="795" type="line"/>
      <point x="1109" y="826"/>
      <point x="1155" y="880"/>
      <point x="1155" y="1087" type="curve"/>
      <point x="1154" y="1207" type="line" smooth="yes"/>
      <point x="1153" y="1425"/>
      <point x="1017" y="1474"/>
      <point x="731" y="1474" type="curve" smooth="yes"/>
      <point x="193" y="1474" type="line"/>
    </contour>
    <contour>
      <point x="354" y="138" type="line"/>
      <point x="354" y="723" type="line"/>
      <point x="603" y="723" type="line" smooth="yes"/>
      <point x="1076" y="723"/>
      <point x="1049" y="691"/>
      <point x="1053" y="433" type="curve" smooth="yes"/>
      <point x="1055" y="360" type="line"/>
      <point x="1055" y="192"/>
      <point x="1017" y="138"/>
      <point x="766" y="138" type="curve" smooth="yes"/>
    </contour>
    <contour>
      <point x="354" y="846" type="line"/>
      <point x="354" y="1335" type="line"/>
      <point x="641" y="1335" type="line" smooth="yes"/>
      <point x="999" y="1335"/>
      <point x="994" y="1324"/>
      <point x="994" y="1129" type="curve" smooth="yes"/>
      <point x="994" y="995" type="line" smooth="yes"/>
      <point x="994" y="898"/>
      <point x="958" y="846"/>
      <point x="566" y="846" type="curve" smooth="yes"/>
    </contour>
  </outline>
</glyph>
<glyph name="K" format="1">
  <advance width="1232"/>
  <unicode hex="004B"/>
  <outline>
    <contour>
      <point x="613" y="1480" type="move" name="top"/>
    </contour>
    <contour>
      <point x="613" y="0" type="move" name="bot"/>
    </contour>
    <contour>
      <point x="962" y="1474" type="line"/>
      <point x="474" y="887" type="line"/>
      <point x="354" y="743" type="line"/>
      <point x="355" y="923" type="line"/>
      <point x="355" y="1474" type="line"/>
      <point x="193" y="1474" type="line"/>
      <point x="193" y="0" type="line"/>
      <point x="355" y="0" type="line"/>
      <point x="355" y="595" type="line"/>
      <point x="435" y="682" type="line"/>
      <point x="1029" y="0" type="line"/>
      <point x="1233" y="0" type="line"/>
      <point x="567" y="771" type="line"/>
      <point x="1166" y="1474" type="line"/>
    </contour>
  </outline>
</glyph>
<glyph name="O" format="1">
  <advance width="1416"/>
  <unicode hex="004F"/>
  <outline>
    <contour>
      <point x="708" y="1480" type="move" name="top"/>
    </contour>
    <contour>
      <point x="802" y="0" type="move" name="ogonek"/>
    </contour>
    <contour>
      <point x="708" y="0" type="move" name="bot"/>
    </contour>
    <contour>
      <point x="708" y="109" type="curve" smooth="yes"/>
      <point x="341" y="109"/>
      <point x="315" y="163"/>
      <point x="309" y="411" type="curve" smooth="yes"/>
      <point x="305" y="516"/>
      <point x="305" y="537"/>
      <point x="305" y="735" type="curve" smooth="yes"/>
      <point x="305" y="931"/>
      <point x="305" y="953"/>
      <point x="309" y="1057" type="curve" smooth="yes"/>
      <point x="315" y="1306"/>
      <point x="341" y="1360"/>
      <point x="708" y="1360" type="curve" smooth="yes"/>
      <point x="1075" y="1360"/>
      <point x="1101" y="1306"/>
      <point x="1107" y="1057" type="curve" smooth="yes"/>
      <point x="1111" y="953"/>
      <point x="1111" y="931"/>
      <point x="1111" y="735" type="curve" smooth="yes"/>
      <point x="1111" y="537"/>
      <point x="1111" y="516"/>
      <point x="1107" y="411" type="curve" smooth="yes"/>
      <point x="1101" y="163"/>
      <point x="1075" y="109"/>
    </contour>
    <contour>
      <point x="708" y="-28" type="curve" smooth="yes"/>
      <point x="1227" y="-28"/>
      <point x="1275" y="137"/>
      <point x="1275" y="718" type="curve" smooth="yes"/>
      <point x="1275" y="750" type="line" smooth="yes"/>
      <point x="1275" y="1332"/>
      <point x="1230" y="1496"/>
      <point x="708" y="1496" type="curve" smooth="yes"/>
      <point x="190" y="1496"/>
      <point x="141" y="1332"/>
      <point x="141" y="750" type="curve" smooth="yes"/>
      <point x="141" y="718" type="line" smooth="yes"/>
      <point x="141" y="137"/>
      <point x="191" y="-28"/>
    </contour>
  </outline>
</glyph>
<glyph name="R" format="1">
  <advance width="1346"/>
  <unicode hex="0052"/>
  <outline>
    <contour>
      <point x="686" y="1480" type="move" name="top"/>
    </contour>
    <contour>
      <point x="686" y="0" type="move" name="bot"/>
    </contour>
    <contour>
      <point x="193" y="0" type="line"/>
      <point x="355" y="0" type="line"/>
      <point x="355" y="640" type="line"/>
      <point x="677" y="640" type="line" smooth="yes"/>
      <point x="842" y="640"/>
      <point x="954" y="605"/>
      <point x="980" y="416" type="curve"/>
      <point x="1048" y="0" type="line"/>
      <point x="1226" y="0" type="line"/>
      <point x="1142" y="469" type="line" smooth="yes"/>
      <point x="1115" y="601"/>
      <point x="1066" y="677"/>
      <point x="954" y="702" type="curve"/>
      <point x="954" y="702" type="line"/>
      <point x="1096" y="729"/>
      <point x="1193" y="798"/>
      <point x="1193" y="1075" type="curve" smooth="yes"/>
      <point x="1193" y="1464"/>
      <point x="1000" y="1474"/>
      <point x="602" y="1474" type="curve" smooth="yes"/>
      <point x="193" y="1474" type="line"/>
    </contour>
    <contour>
      <point x="355" y="788" type="line"/>
      <point x="355" y="1334" type="line"/>
      <point x="708" y="1334" type="line" smooth="yes"/>
      <point x="1016" y="1334"/>
      <point x="1032" y="1319"/>
      <point x="1032" y="1079" type="curve" smooth="yes"/>
      <point x="1032" y="818"/>
      <point x="1000" y="788"/>
      <point x="721" y="788" type="curve" smooth="yes"/>
    </contour>
  </outline>
</glyph>
<glyph name="U" format="1">
  <advance width="1389"/>
  <unicode hex="0055"/>
  <outline>
    <contour>
      <point x="695" y="1480" type="move" name="top"/>
    </contour>
    <contour>
      <point x="766" y="0" type="move" name="ogonek"/>
    </contour>
    <contour>
      <point x="695" y="0" type="move" name="bot"/>
    </contour>
    <contour>
      <point x="145" y="1474" type="line"/>
      <point x="145" y="585" type="line" smooth="yes"/>
      <point x="145" y="80"/>
      <point x="256" y="-22"/>
      <point x="693" y="-22" type="curve" smooth="yes"/>
      <point x="1150" y="-22"/>
      <point x="1244" y="102"/>
      <point x="1244" y="585" type="curve" smooth="yes"/>
      <point x="1244" y="1474" type="line"/>
      <point x="1083" y="1474" type="line"/>
      <point x="1083" y="465" type="line" smooth="yes"/>
      <point x="1083" y="181"/>
      <point x="1054" y="114"/>
      <point x="694" y="114" type="curve" smooth="yes"/>
      <point x="300" y="114"/>
      <point x="308" y="168"/>
      <point x="308" y="576" type="curve" smooth="yes"/>
      <point x="308" y="1474" type="line"/>
    </contour>
  </outline>
</glyph>
<glyph name="W" format="1">
  <advance width="1901"/>
  <unicode hex="0057"/>
  <outline>
    <contour>
      <point x="948" y="1480" type="move" name="top"/>
    </contour>
    <contour>
      <point x="948" y="0" type="move" name="bot"/>
    </contour>
    <contour>
      <point x="1628" y="1474" type="line"/>
      <point x="1391" y="260" type="line"/>
      <point x="1377" y="261" type="line"/>
      <point x="1047" y="1474" type="line"/>
      <point x="873" y="1474" type="line"/>
      <point x="538" y="251" type="line"/>
      <point x="530" y="251" type="line"/>
      <point x="284" y="1474" type="line"/>
      <point x="116" y="1474" type="line"/>
      <point x="445" y="0" type="line"/>
      <point x="621" y="0" type="line"/>
      <point x="956" y="1197" type="line"/>
      <point x="971" y="1197" type="line"/>
      <point x="1280" y="0" type="line"/>
      <point x="1454" y="0" type="line"/>
      <point x="1785" y="1474" type="line"/>
    </contour>
  </outline>
</glyph>
<glyph name="X" format="1">
  <advance width="1232"/>
  <unicode hex="0058"/>
  <outline>
    <contour>
      <point x="990" y="1474" type="line"/>
      <point x="607" y="879" type="line"/>
      <point x="543" y="774" type="line"/>
      <point x="48" y="0" type="line"/>
      <point x="236" y="0" type="line"/>
      <point x="631" y="615" type="line"/>
      <point x="697" y="728" type="line"/>
      <point x="1174" y="1474" type="line"/>
    </contour>
    <contour>
      <point x="87" y="1474" type="line"/>
      <point x="1004" y="0" type="line"/>
      <point x="1182" y="0" type="line"/>
      <point x="259" y="1474" type="line"/>
    </contour>
  </outline>
</glyph>
<glyph name="Y" format="1">
  <advance width="1185"/>
  <unicode hex="0059"/>
  <outline>
    <contour>
      <point x="606" y="1480" type="move" name="top"/>
    </contour>
    <contour>
      <point x="606" y="0" type="move" name="bot"/>
    </contour>
    <contour>
      <point x="973" y="1474" type="line"/>
      <point x="595" y="694" type="line"/>
      <point x="594" y="694" type="line"/>
      <point x="228" y="1474" type="line"/>
      <point x="52" y="1474" type="line"/>
      <point x="505" y="515" type="line"/>
      <point x="505" y="0" type="line"/>
      <point x="667" y="0" type="line"/>
      <point x="667" y="516" type="line"/>
      <point x="1142" y="1474" type="line"/>
    </contour>
  </outline>
</glyph>
<glyph name="backslash" format="1">
  <advance width="730"/>
  <unicode hex="005C"/>
  <outline>
    <contour>
      <point x="109" y="1504" type="line"/>
      <point x="463" y="-30" type="line"/>
      <point x="623" y="-30" type="line"/>
      <point x="281" y="1504" type="line"/>
    </contour>
  </outline>
</glyph>
<glyph name="asciicircum" format="1">
  <advance width="931"/>
  <unicode hex="005E"/>
  <outline>
    <contour>
      <point x="467" y="1477" type="curve" smooth="yes"/>
      <point x="426" y="1477"/>
      <point x="407" y="1465"/>
      <point x="390" y="1434" type="curve" smooth="yes"/>
      <point x="48" y="762" type="line" smooth="yes"/>
      <point x="25" y="721"/>
      <point x="97" y="702"/>
      <point x="119" y="734" type="curve" smooth="yes"/>
      <point x="467" y="1331" type="line"/>
      <point x="815" y="734" type="line" smooth="yes"/>
      <point x="837" y="702"/>
      <point x="909" y="721"/>
      <point x="886" y="762" type="curve" smooth="yes"/>
      <point x="544" y="1434" type="line" smooth="yes"/>
      <point x="527" y="1465"/>
      <point x="508" y="1477"/>
    </contour>
  </outline>
</glyph>
<glyph name="grave" format="1">
  <advance width="618"/>
  <unicode hex="0060"/>
  <outline>
    <contour>
      <point x="304" y="1077" type="move" name="_top"/>
    </contour>
    <contour>
      <point x="64" y="1493" type="curve" smooth="yes"/>
      <point x="64" y="1458"/>
      <point x="84" y="1418"/>
      <point x="130" y="1401" type="curve" smooth="yes"/>
      <point x="147" y="1397"/>
      <point x="526" y="1249"/>
      <point x="506" y="1259" type="curve"/>
      <point x="510" y="1258"/>
      <point x="514" y="1259"/>
      <point x="515" y="1261" type="curve" smooth="yes"/>
      <point x="517" y="1264"/>
      <point x="518" y="1267"/>
      <point x="518" y="1267" type="curve"/>
      <point x="534" y="1245"/>
      <point x="271" y="1519"/>
      <point x="240" y="1547" type="curve" smooth="yes"/>
      <point x="218" y="1565"/>
      <point x="191" y="1582"/>
      <point x="160" y="1582" type="curve" smooth="yes"/>
      <point x="97" y="1582"/>
      <point x="64" y="1538"/>
    </contour>
  </outline>
</glyph>
<glyph name="a" format="1">
  <advance width="1080"/>
  <unicode hex="0061"/>
  <outline>
    <contour>
      <point x="516" y="1077" type="move" name="top"/>
    </contour>
    <contour>
      <point x="876" y="0" type="move" name="ogonek"/>
    </contour>
    <contour>
      <point x="544" y="0" type="move" name="bot"/>
    </contour>
    <contour>
      <point x="153" y="858" type="curve" smooth="yes"/>
      <point x="153" y="846"/>
      <point x="153" y="833"/>
      <point x="154" y="820" type="curve"/>
      <point x="270" y="810" type="line"/>
      <point x="271" y="848"/>
      <point x="272" y="852"/>
      <point x="276" y="876" type="curve" smooth="yes"/>
      <point x="288" y="955"/>
      <point x="324" y="974"/>
      <point x="525" y="974" type="curve" smooth="yes"/>
      <point x="704" y="974"/>
      <point x="779" y="950"/>
      <point x="779" y="870" type="curve" smooth="yes"/>
      <point x="779" y="577" type="line"/>
      <point x="687" y="577"/>
      <point x="627" y="580"/>
      <point x="550" y="576" type="curve" smooth="yes"/>
      <point x="294" y="564"/>
      <point x="133" y="507"/>
      <point x="133" y="351" type="curve" smooth="yes"/>
      <point x="133" y="85"/>
      <point x="192" y="-20"/>
      <point x="457" y="-20" type="curve" smooth="yes"/>
      <point x="642" y="-20"/>
      <point x="745" y="6"/>
      <point x="786" y="160" type="curve"/>
      <point x="816" y="0" type="line"/>
      <point x="938" y="0" type="line"/>
      <point x="938" y="692" type="line" smooth="yes"/>
      <point x="938" y="997"/>
      <point x="852" y="1086"/>
      <point x="539" y="1086" type="curve" smooth="yes"/>
      <point x="305" y="1086"/>
      <point x="153" y="1074"/>
    </contour>
    <contour>
      <point x="779" y="330" type="line" smooth="yes"/>
      <point x="779" y="203"/>
      <point x="713" y="109"/>
      <point x="465" y="109" type="curve" smooth="yes"/>
      <point x="304" y="109"/>
      <point x="284" y="136"/>
      <point x="278" y="275" type="curve" smooth="yes"/>
      <point x="277" y="304"/>
      <point x="277" y="277"/>
      <point x="277" y="316" type="curve" smooth="yes"/>
      <point x="277" y="419"/>
      <point x="336" y="462"/>
      <point x="779" y="462" type="curve"/>
    </contour>
  </outline>
</glyph>
<glyph name="e" format="1">
  <advance width="1090"/>
  <unicode hex="0065"/>
  <outline>
    <contour>
      <point x="527" y="1077" type="move" name="top"/>
    </contour>
    <contour>
      <point x="630" y="0" type="move" name="ogonek"/>
    </contour>
    <contour>
      <point x="551" y="0" type="move" name="bot"/>
    </contour>
    <contour>
      <point x="574" y="-14" type="curve" smooth="yes"/>
      <point x="826" y="-14"/>
      <point x="939" y="17"/>
      <point x="945" y="213" type="curve"/>
      <point x="945" y="208"/>
      <point x="947" y="308"/>
      <point x="948" y="302" type="curve"/>
      <point x="835" y="312" type="line"/>
      <point x="824" y="214" type="line" smooth="yes"/>
      <point x="819" y="146"/>
      <point x="771" y="110"/>
      <point x="583" y="110" type="curve" smooth="yes"/>
      <point x="363" y="110"/>
      <point x="304" y="133"/>
      <point x="299" y="237" type="curve" smooth="yes"/>
      <point x="292" y="357"/>
      <point x="291" y="418"/>
      <point x="290" y="542" type="curve"/>
      <point x="974" y="542" type="line"/>
      <point x="979" y="580" type="line"/>
      <point x="975" y="999"/>
      <point x="953" y="1099"/>
      <point x="566" y="1099" type="curve" smooth="yes"/>
      <point x="143" y="1099"/>
      <point x="132" y="990"/>
      <point x="132" y="540" type="curve" smooth="yes"/>
      <point x="132" y="477" type="line" smooth="yes"/>
      <point x="132" y="87"/>
      <point x="189" y="-14"/>
    </contour>
    <contour>
      <point x="291" y="637" type="line"/>
      <point x="293" y="724"/>
      <point x="290" y="786"/>
      <point x="310" y="864" type="curve" smooth="yes"/>
      <point x="332" y="952"/>
      <point x="348" y="974"/>
      <point x="564" y="974" type="curve" smooth="yes"/>
      <point x="751" y="974"/>
      <point x="802" y="951"/>
      <point x="809" y="857" type="curve" smooth="yes"/>
      <point x="816" y="769"/>
      <point x="819" y="729"/>
      <point x="820" y="637" type="curve"/>
    </contour>
  </outline>
</glyph>
<glyph name="g" format="1">
  <advance width="1124"/>
  <unicode hex="0067"/>
  <outline>
    <contour>
      <point x="548" y="1077" type="move" name="top"/>
    </contour>
    <contour>
      <point x="570" y="0" type="move" name="bot"/>
    </contour>
    <contour>
      <point x="131" y="565" type="curve" smooth="yes"/>
      <point x="131" y="508" type="line" smooth="yes"/>
      <point x="131" y="146"/>
      <point x="130" y="6"/>
      <point x="547" y="6" type="curve" smooth="yes"/>
      <point x="710" y="6"/>
      <point x="787" y="48"/>
      <point x="820" y="143" type="curve"/>
      <point x="820" y="-103" type="line"/>
      <point x="825" y="-214"/>
      <point x="810" y="-284"/>
      <point x="547" y="-284" type="curve" smooth="yes"/>
      <point x="443" y="-284"/>
      <point x="360" y="-274"/>
      <point x="289" y="-255" type="curve"/>
      <point x="280" y="-367" type="line"/>
      <point x="355" y="-395"/>
      <point x="454" y="-405"/>
      <point x="576" y="-405" type="curve" smooth="yes"/>
      <point x="935" y="-405"/>
      <point x="982" y="-293"/>
      <point x="982" y="74" type="curve" smooth="yes"/>
      <point x="984" y="1067" type="line"/>
      <point x="838" y="1067" type="line"/>
      <point x="820" y="943" type="line"/>
      <point x="773" y="1053"/>
      <point x="669" y="1086"/>
      <point x="497" y="1086" type="curve" smooth="yes"/>
      <point x="156" y="1086"/>
      <point x="131" y="965"/>
    </contour>
    <contour>
      <point x="575" y="130" type="curve" smooth="yes"/>
      <point x="227" y="130"/>
      <point x="295" y="252"/>
      <point x="291" y="397" type="curve" smooth="yes"/>
      <point x="288" y="526"/>
      <point x="288" y="532"/>
      <point x="288" y="683" type="curve" smooth="yes"/>
      <point x="288" y="933"/>
      <point x="311" y="964"/>
      <point x="553" y="964" type="curve" smooth="yes"/>
      <point x="768" y="964"/>
      <point x="824" y="918"/>
      <point x="824" y="792" type="curve" smooth="yes"/>
      <point x="823" y="232" type="line" smooth="yes"/>
      <point x="823" y="149"/>
      <point x="690" y="130"/>
    </contour>
  </outline>
</glyph>
<glyph name="h" format="1">
  <advance width="1136"/>
  <unicode hex="0068"/>
  <outline>
    <contour>
      <point x="632" y="1274" type="move" name="top"/>
    </contour>
    <contour>
      <point x="569" y="0" type="move" name="bot"/>
    </contour>
    <contour>
      <point x="569" y="1077" type="move" name="mid"/>
    </contour>
    <contour>
      <point x="567" y="539" type="move" name="center"/>
    </contour>
    <contour>
      <point x="159" y="1509" type="line"/>
      <point x="159" y="0" type="line"/>
      <point x="319" y="0" type="line"/>
      <point x="319" y="839" type="line" smooth="yes"/>
      <point x="319" y="923"/>
      <point x="455" y="960"/>
      <point x="565" y="960" type="curve" smooth="yes"/>
      <point x="833" y="960"/>
      <point x="831" y="926"/>
      <point x="831" y="588" type="curve" smooth="yes"/>
      <point x="831" y="0" type="line"/>
      <point x="990" y="0" type="line"/>
      <point x="991" y="692" type="line" smooth="yes"/>
      <point x="991" y="922"/>
      <point x="977" y="1086"/>
      <point x="615" y="1086" type="curve" smooth="yes"/>
      <point x="464" y="1086"/>
      <point x="366" y="1048"/>
      <point x="319" y="972" type="curve"/>
      <point x="319" y="1509" type="line"/>
    </contour>
  </outline>
</glyph>
<glyph name="i" format="1">
  <advance width="503"/>
  <unicode hex="0069"/>
  <outline>
    <component base="dotaccent" xOffset="71"/>
    <component base="dotlessi" xOffset="26"/>
    <contour>
      <point x="-10" y="0" type="move" name="ogonek"/>
    </contour>
  </outline>
</glyph>
<glyph name="l" format="1">
  <advance width="463"/>
  <unicode hex="006C"/>
  <outline>
    <contour>
      <point x="245" y="1480" type="move" name="top"/>
    </contour>
    <contour>
      <point x="256" y="1077" type="move" name="caron.alt"/>
    </contour>
    <contour>
      <point x="248" y="0" type="move" name="bot"/>
    </contour>
    <contour>
      <point x="247" y="1108" type="move" name="mid"/>
    </contour>
    <contour>
      <point x="247" y="0" type="move" name="bottom"/>
    </contour>
    <contour>
      <point x="167" y="1509" type="line"/>
      <point x="167" y="0" type="line"/>
      <point x="326" y="0" type="line"/>
      <point x="326" y="1509" type="line"/>
    </contour>
  </outline>
</glyph>
<glyph name="m" format="1">
  <advance width="1704"/>
  <unicode hex="006D"/>
  <outline>
    <contour>
      <point x="856" y="1077" type="move" name="top"/>
    </contour>
    <contour>
      <point x="856" y="0" type="move" name="bot"/>
    </contour>
    <contour>
      <point x="894" y="939" type="curve"/>
      <point x="855" y="1056"/>
      <point x="768" y="1086"/>
      <point x="622" y="1086" type="curve" smooth="yes"/>
      <point x="477" y="1086"/>
      <point x="378" y="1062"/>
      <point x="323" y="945" type="curve"/>
      <point x="305" y="1067" type="line"/>
      <point x="159" y="1067" type="line"/>
      <point x="159" y="0" type="line"/>
      <point x="319" y="0" type="line"/>
      <point x="320" y="866" type="line" smooth="yes"/>
      <point x="320" y="950"/>
      <point x="448" y="973"/>
      <point x="545" y="973" type="curve" smooth="yes"/>
      <point x="785" y="973"/>
      <point x="782" y="911"/>
      <point x="782" y="674" type="curve" smooth="yes"/>
      <point x="782" y="0" type="line"/>
      <point x="943" y="0" type="line"/>
      <point x="942" y="751" type="line" smooth="yes"/>
      <point x="942" y="794"/>
      <point x="942" y="831"/>
      <point x="953" y="859" type="curve" smooth="yes"/>
      <point x="978" y="936"/>
      <point x="1036" y="973"/>
      <point x="1209" y="973" type="curve" smooth="yes"/>
      <point x="1406" y="973"/>
      <point x="1398" y="867"/>
      <point x="1398" y="600" type="curve" smooth="yes"/>
      <point x="1398" y="0" type="line"/>
      <point x="1559" y="0" type="line"/>
      <point x="1559" y="632" type="line" smooth="yes"/>
      <point x="1559" y="1000"/>
      <point x="1513" y="1086"/>
      <point x="1207" y="1086" type="curve" smooth="yes"/>
      <point x="1046" y="1086"/>
      <point x="946" y="1044"/>
    </contour>
  </outline>
</glyph>
<glyph name="n" format="1">
  <advance width="1128"/>
  <unicode hex="006E"/>
  <outline>
    <contour>
      <point x="568" y="1077" type="move" name="top"/>
    </contour>
    <contour>
      <point x="569" y="0" type="move" name="bot"/>
    </contour>
    <contour>
      <point x="323" y="942" type="curve"/>
      <point x="306" y="1067" type="line"/>
      <point x="159" y="1067" type="line"/>
      <point x="159" y="0" type="line"/>
      <point x="318" y="0" type="line"/>
      <point x="318" y="731" type="line" smooth="yes"/>
      <point x="318" y="897"/>
      <point x="364" y="960"/>
      <point x="623" y="960" type="curve" smooth="yes"/>
      <point x="807" y="960"/>
      <point x="823" y="874"/>
      <point x="823" y="666" type="curve" smooth="yes"/>
      <point x="823" y="0" type="line"/>
      <point x="982" y="0" type="line"/>
      <point x="982" y="692" type="line" smooth="yes"/>
      <point x="982" y="934"/>
      <point x="937" y="1086"/>
      <point x="648" y="1086" type="curve" smooth="yes"/>
      <point x="503" y="1086"/>
      <point x="358" y="1064"/>
    </contour>
  </outline>
</glyph>
<glyph name="q" format="1">
  <advance width="1148"/>
  <unicode hex="0071"/>
  <outline>
    <contour>
      <point x="162" y="542" type="curve" smooth="yes"/>
      <point x="162" y="567" type="line" smooth="yes"/>
      <point x="162" y="146"/>
      <point x="194" y="-20"/>
      <point x="560" y="-20" type="curve" smooth="yes"/>
      <point x="736" y="-20"/>
      <point x="839" y="29"/>
      <point x="860" y="105" type="curve"/>
      <point x="860" y="-366" type="line"/>
      <point x="1020" y="-384" type="line"/>
      <point x="1020" y="1067" type="line"/>
      <point x="872" y="1067" type="line"/>
      <point x="855" y="944" type="line"/>
      <point x="817" y="1046"/>
      <point x="716" y="1086"/>
      <point x="539" y="1086" type="curve" smooth="yes"/>
      <point x="195" y="1086"/>
      <point x="162" y="929"/>
    </contour>
    <contour>
      <point x="587" y="105" type="curve" smooth="yes"/>
      <point x="316" y="105"/>
      <point x="318" y="144"/>
      <point x="318" y="447" type="curve" smooth="yes"/>
      <point x="318" y="686" type="line" smooth="yes"/>
      <point x="318" y="834"/>
      <point x="276" y="960"/>
      <point x="587" y="960" type="curve" smooth="yes"/>
      <point x="866" y="960"/>
      <point x="865" y="922"/>
      <point x="865" y="631" type="curve" smooth="yes"/>
      <point x="865" y="487" type="line" smooth="yes"/>
      <point x="865" y="178"/>
      <point x="827" y="105"/>
    </contour>
  </outline>
</glyph>
<glyph name="s" format="1">
  <advance width="991"/>
  <unicode hex="0073"/>
  <outline>
    <contour>
      <point x="469" y="1077" type="move" name="top"/>
    </contour>
    <contour>
      <point x="485" y="0" type="move" name="bot"/>
    </contour>
    <contour>
      <point x="550" y="-20" type="curve" smooth="yes"/>
      <point x="804" y="-20"/>
      <point x="909" y="50"/>
      <point x="909" y="281" type="curve" smooth="yes"/>
      <point x="909" y="553"/>
      <point x="882" y="599"/>
      <point x="537" y="633" type="curve"/>
      <point x="465" y="637" type="line"/>
      <point x="274" y="655"/>
      <point x="268" y="668"/>
      <point x="268" y="809" type="curve" smooth="yes"/>
      <point x="268" y="878"/>
      <point x="271" y="901"/>
      <point x="302" y="929" type="curve" smooth="yes"/>
      <point x="333" y="957"/>
      <point x="386" y="968"/>
      <point x="502" y="968" type="curve" smooth="yes"/>
      <point x="621" y="968"/>
      <point x="678" y="965"/>
      <point x="714" y="941" type="curve" smooth="yes"/>
      <point x="752" y="918"/>
      <point x="761" y="895"/>
      <point x="767" y="814" type="curve"/>
      <point x="863" y="858" type="line"/>
      <point x="863" y="1075"/>
      <point x="720" y="1086"/>
      <point x="508" y="1086" type="curve" smooth="yes"/>
      <point x="233" y="1086"/>
      <point x="125" y="1035"/>
      <point x="125" y="816" type="curve" smooth="yes"/>
      <point x="125" y="546"/>
      <point x="204" y="530"/>
      <point x="503" y="503" type="curve"/>
      <point x="582" y="499" type="line"/>
      <point x="738" y="485"/>
      <point x="766" y="467"/>
      <point x="766" y="304" type="curve" smooth="yes"/>
      <point x="766" y="232"/>
      <point x="765" y="199"/>
      <point x="734" y="160" type="curve" smooth="yes"/>
      <point x="704" y="121"/>
      <point x="651" y="100"/>
      <point x="534" y="100" type="curve" smooth="yes"/>
      <point x="390" y="100"/>
      <point x="324" y="102"/>
      <point x="287" y="133" type="curve" smooth="yes"/>
      <point x="248" y="163"/>
      <point x="245" y="198"/>
      <point x="236" y="310" type="curve"/>
      <point x="118" y="268" type="line"/>
      <point x="118" y="-12"/>
      <point x="283" y="-20"/>
    </contour>
  </outline>
</glyph>
<glyph name="u" format="1">
  <advance width="1131"/>
  <unicode hex="0075"/>
  <outline>
    <contour>
      <point x="557" y="1077" type="move" name="top"/>
    </contour>
    <contour>
      <point x="888" y="0" type="move" name="ogonek"/>
    </contour>
    <contour>
      <point x="810" y="1067" type="line"/>
      <point x="810" y="411" type="line" smooth="yes"/>
      <point x="810" y="241"/>
      <point x="853" y="105"/>
      <point x="555" y="105" type="curve" smooth="yes"/>
      <point x="271" y="105"/>
      <point x="306" y="172"/>
      <point x="306" y="494" type="curve" smooth="yes"/>
      <point x="306" y="1067" type="line"/>
      <point x="146" y="1067" type="line"/>
      <point x="146" y="463" type="line" smooth="yes"/>
      <point x="146" y="108"/>
      <point x="196" y="-20"/>
      <point x="481" y="-20" type="curve" smooth="yes"/>
      <point x="640" y="-20"/>
      <point x="772" y="29"/>
      <point x="807" y="144" type="curve"/>
      <point x="823" y="-1" type="line"/>
      <point x="972" y="-1" type="line"/>
      <point x="972" y="1067" type="line"/>
    </contour>
  </outline>
</glyph>
<glyph name="w" format="1">
  <advance width="1551"/>
  <unicode hex="0077"/>
  <outline>
    <contour>
      <point x="779" y="1077" type="move" name="top"/>
    </contour>
    <contour>
      <point x="789" y="0" type="move" name="bot"/>
    </contour>
    <contour>
      <point x="388" y="0" type="line"/>
      <point x="541" y="0" type="line"/>
      <point x="783" y="865" type="line"/>
      <point x="784" y="865" type="line"/>
      <point x="1036" y="0" type="line"/>
      <point x="1166" y="0" type="line"/>
      <point x="1462" y="1067" type="line"/>
      <point x="1310" y="1067" type="line"/>
      <point x="1098" y="190" type="line"/>
      <point x="1097" y="190" type="line"/>
      <point x="848" y="1067" type="line"/>
      <point x="708" y="1067" type="line"/>
      <point x="467" y="190" type="line"/>
      <point x="467" y="190" type="line"/>
      <point x="239" y="1067" type="line"/>
      <point x="91" y="1067" type="line"/>
    </contour>
  </outline>
</glyph>
<glyph name="x" format="1">
  <advance width="988"/>
  <unicode hex="0078"/>
  <outline>
    <contour>
      <point x="62" y="0" type="line"/>
      <point x="218" y="0" type="line"/>
      <point x="518" y="477" type="line"/>
      <point x="576" y="538" type="line"/>
      <point x="914" y="1067" type="line"/>
      <point x="760" y="1067" type="line"/>
      <point x="478" y="625" type="line"/>
      <point x="425" y="575" type="line"/>
    </contour>
    <contour>
      <point x="752" y="0" type="line"/>
      <point x="923" y="0" type="line"/>
      <point x="239" y="1067" type="line"/>
      <point x="70" y="1067" type="line"/>
    </contour>
  </outline>
</glyph>
<glyph name="y" format="1">
  <advance width="979"/>
  <unicode hex="0079"/>
  <outline>
    <contour>
      <point x="504" y="1077" type="move" name="top"/>
    </contour>
    <contour>
      <point x="495" y="0" type="move" name="bot"/>
    </contour>
    <contour>
      <point x="797" y="1067" type="line"/>
      <point x="521" y="193" type="line"/>
      <point x="520" y="193" type="line"/>
      <point x="201" y="1067" type="line"/>
      <point x="39" y="1067" type="line"/>
      <point x="464" y="3" type="line"/>
      <point x="440" y="-96"/>
      <point x="427" y="-160"/>
      <point x="399" y="-200" type="curve" smooth="yes"/>
      <point x="372" y="-235"/>
      <point x="334" y="-248"/>
      <point x="263" y="-248" type="curve" smooth="yes"/>
      <point x="233" y="-248"/>
      <point x="197" y="-248"/>
      <point x="153" y="-246" type="curve"/>
      <point x="142" y="-350" type="line"/>
      <point x="203" y="-351"/>
      <point x="242" y="-351"/>
      <point x="283" y="-351" type="curve" smooth="yes"/>
      <point x="450" y="-351"/>
      <point x="503" y="-298"/>
      <point x="585" y="-47" type="curve" smooth="yes"/>
      <point x="952" y="1067" type="line"/>
    </contour>
  </outline>
</glyph>
<glyph name="braceleft" format="1">
  <advance width="807"/>
  <unicode hex="007B"/>
  <outline>
    <contour>
      <point x="747" y="-193" type="curve"/>
      <point x="747" y="-92" type="line"/>
      <point x="506" y="-92"/>
      <point x="503" y="-47"/>
      <point x="502" y="284" type="curve" smooth="yes"/>
      <point x="502" y="525"/>
      <point x="476" y="671"/>
      <point x="311" y="701" type="curve"/>
      <point x="476" y="731"/>
      <point x="502" y="877"/>
      <point x="502" y="1118" type="curve" smooth="yes"/>
      <point x="503" y="1449"/>
      <point x="506" y="1495"/>
      <point x="747" y="1495" type="curve"/>
      <point x="747" y="1595" type="line"/>
      <point x="390" y="1595"/>
      <point x="346" y="1503"/>
      <point x="342" y="1128" type="curve" smooth="yes"/>
      <point x="339" y="802"/>
      <point x="264" y="782"/>
      <point x="76" y="782" type="curve"/>
      <point x="76" y="620" type="line"/>
      <point x="264" y="620"/>
      <point x="339" y="601"/>
      <point x="342" y="274" type="curve" smooth="yes"/>
      <point x="346" y="-101"/>
      <point x="390" y="-193"/>
    </contour>
  </outline>
</glyph>
<glyph name="bar" format="1">
  <advance width="428"/>
  <unicode hex="007C"/>
  <outline>
    <contour>
      <point x="147" y="1614" type="line"/>
      <point x="147" y="-187" type="line"/>
      <point x="282" y="-187" type="line"/>
      <point x="282" y="1614" type="line"/>
    </contour>
  </outline>
</glyph>
<glyph name="braceright" format="1">
  <advance width="807"/>
  <unicode hex="007D"/>
  <outline>
    <contour>
      <point x="76" y="-193" type="line"/>
      <point x="432" y="-193"/>
      <point x="476" y="-101"/>
      <point x="481" y="274" type="curve" smooth="yes"/>
      <point x="484" y="601"/>
      <point x="559" y="620"/>
      <point x="747" y="620" type="curve"/>
      <point x="747" y="782" type="line"/>
      <point x="559" y="782"/>
      <point x="484" y="802"/>
      <point x="481" y="1128" type="curve" smooth="yes"/>
      <point x="476" y="1504"/>
      <point x="432" y="1595"/>
      <point x="76" y="1595" type="curve"/>
      <point x="76" y="1495" type="line"/>
      <point x="317" y="1495"/>
      <point x="320" y="1449"/>
      <point x="320" y="1118" type="curve" smooth="yes"/>
      <point x="320" y="877"/>
      <point x="346" y="731"/>
      <point x="512" y="701" type="curve"/>
      <point x="346" y="671"/>
      <point x="320" y="525"/>
      <point x="320" y="284" type="curve" smooth="yes"/>
      <point x="320" y="-47"/>
      <point x="317" y="-92"/>
      <point x="76" y="-92" type="curve"/>
    </contour>
  </outline>
</glyph>
<glyph name="cent" format="1">
  <advance width="1322"/>
  <unicode hex="00A2"/>
  <outline>
    <component base="C"/>
    <contour>
      <point x="659" y="1761" type="line"/>
      <point x="659" y="1421" type="line"/>
      <point x="762" y="1421" type="line"/>
      <point x="762" y="1761" type="line"/>
    </contour>
    <contour>
      <point x="661" y="42" type="line"/>
      <point x="661" y="-264" type="line"/>
      <point x="764" y="-264" type="line"/>
      <point x="764" y="42" type="line"/>
    </contour>
  </outline>
</glyph>
<glyph name="currency" format="1">
  <advance width="1140"/>
  <unicode hex="00A4"/>
  <outline>
    <contour>
      <point x="935" y="223" type="line"/>
      <point x="997" y="289" type="line"/>
      <point x="856" y="466" type="line"/>
      <point x="932" y="541"/>
      <point x="970" y="641"/>
      <point x="970" y="759" type="curve" smooth="yes"/>
      <point x="970" y="876"/>
      <point x="930" y="974"/>
      <point x="854" y="1047" type="curve"/>
      <point x="996" y="1227" type="line"/>
      <point x="934" y="1294" type="line"/>
      <point x="779" y="1110" type="line"/>
      <point x="724" y="1147"/>
      <point x="653" y="1166"/>
      <point x="569" y="1166" type="curve" smooth="yes"/>
      <point x="484" y="1166"/>
      <point x="413" y="1145"/>
      <point x="359" y="1107" type="curve"/>
      <point x="205" y="1296" type="line"/>
      <point x="144" y="1228" type="line"/>
      <point x="287" y="1046" type="line"/>
      <point x="213" y="974"/>
      <point x="173" y="878"/>
      <point x="173" y="758" type="curve" smooth="yes"/>
      <point x="173" y="638"/>
      <point x="211" y="538"/>
      <point x="284" y="465" type="curve"/>
      <point x="143" y="289" type="line"/>
      <point x="204" y="222" type="line"/>
      <point x="355" y="405" type="line"/>
      <point x="410" y="373"/>
      <point x="483" y="356"/>
      <point x="571" y="357" type="curve" smooth="yes"/>
      <point x="655" y="357"/>
      <point x="727" y="373"/>
      <point x="785" y="405" type="curve"/>
    </contour>
    <contour>
      <point x="572" y="429" type="curve" smooth="yes"/>
      <point x="335" y="429"/>
      <point x="237" y="544"/>
      <point x="232" y="785" type="curve" smooth="yes"/>
      <point x="232" y="791"/>
      <point x="232" y="722"/>
      <point x="232" y="728" type="curve" smooth="yes"/>
      <point x="232" y="978"/>
      <point x="342" y="1102"/>
      <point x="572" y="1102" type="curve" smooth="yes"/>
      <point x="817" y="1102"/>
      <point x="910" y="977"/>
      <point x="910" y="727" type="curve" smooth="yes"/>
      <point x="910" y="722"/>
      <point x="910" y="791"/>
      <point x="910" y="785" type="curve" smooth="yes"/>
      <point x="905" y="547"/>
      <point x="796" y="429"/>
    </contour>
  </outline>
</glyph>
<glyph name="yen" format="1">
  <advance width="1287"/>
  <unicode hex="00A5"/>
  <outline>
    <contour>
      <point x="557" y="0" type="line"/>
      <point x="718" y="0" type="line"/>
      <point x="718" y="255" type="line"/>
      <point x="989" y="255" type="line"/>
      <point x="989" y="333" type="line"/>
      <point x="718" y="333" type="line"/>
      <point x="713" y="508" type="line"/>
      <point x="1040" y="508" type="line"/>
      <point x="1040" y="616" type="line"/>
      <point x="765" y="616" type="line"/>
      <point x="1170" y="1474" type="line"/>
      <point x="990" y="1474" type="line"/>
      <point x="644" y="714" type="line"/>
      <point x="306" y="1474" type="line"/>
      <point x="119" y="1474" type="line"/>
      <point x="511" y="616" type="line"/>
      <point x="248" y="616" type="line"/>
      <point x="248" y="508" type="line"/>
      <point x="562" y="508" type="line"/>
      <point x="557" y="333" type="line"/>
      <point x="300" y="333" type="line"/>
      <point x="300" y="255" type="line"/>
      <point x="557" y="255" type="line"/>
    </contour>
  </outline>
</glyph>
<glyph name="brokenbar" format="1">
  <advance width="441"/>
  <unicode hex="00A6"/>
  <outline>
    <contour>
      <point x="157" y="1628" type="line"/>
      <point x="157" y="830" type="line"/>
      <point x="306" y="830" type="line"/>
      <point x="306" y="1628" type="line"/>
    </contour>
    <contour>
      <point x="157" y="557" type="line"/>
      <point x="157" y="-240" type="line"/>
      <point x="306" y="-240" type="line"/>
      <point x="306" y="557" type="line"/>
    </contour>
  </outline>
</glyph>
<glyph name="dieresis" format="1">
  <advance width="934"/>
  <unicode hex="00A8"/>
  <outline>
    <contour>
      <point x="462" y="1077" type="move" name="_top"/>
    </contour>
    <contour>
      <point x="567" y="1340" type="curve" smooth="yes"/>
      <point x="567" y="1265"/>
      <point x="615" y="1230"/>
      <point x="682" y="1230" type="curve" smooth="yes"/>
      <point x="750" y="1230"/>
      <point x="797" y="1265"/>
      <point x="797" y="1340" type="curve" smooth="yes"/>
      <point x="797" y="1414"/>
      <point x="750" y="1450"/>
      <point x="682" y="1450" type="curve" smooth="yes"/>
      <point x="616" y="1450"/>
      <point x="567" y="1413"/>
    </contour>
    <contour>
      <point x="131" y="1340" type="curve" smooth="yes"/>
      <point x="131" y="1265"/>
      <point x="180" y="1230"/>
      <point x="247" y="1230" type="curve" smooth="yes"/>
      <point x="315" y="1230"/>
      <point x="362" y="1265"/>
      <point x="362" y="1340" type="curve" smooth="yes"/>
      <point x="362" y="1414"/>
      <point x="315" y="1450"/>
      <point x="247" y="1450" type="curve" smooth="yes"/>
      <point x="181" y="1450"/>
      <point x="131" y="1413"/>
    </contour>
  </outline>
</glyph>
<glyph name="copyright" format="1">
  <advance width="1793"/>
  <unicode hex="00A9"/>
  <outline>
    <contour>
      <point x="881" y="219" type="curve" smooth="yes"/>
      <point x="1243" y="219"/>
      <point x="1285" y="267"/>
      <point x="1285" y="555" type="curve" smooth="yes"/>
      <point x="1285" y="628" type="line"/>
      <point x="1174" y="628" type="line"/>
      <point x="1173" y="544" type="line" smooth="yes"/>
      <point x="1171" y="342"/>
      <point x="1160" y="327"/>
      <point x="909" y="327" type="curve" smooth="yes"/>
      <point x="648" y="327"/>
      <point x="623" y="361"/>
      <point x="623" y="527" type="curve" smooth="yes"/>
      <point x="622" y="1029" type="line" smooth="yes"/>
      <point x="622" y="1193"/>
      <point x="628" y="1211"/>
      <point x="909" y="1211" type="curve" smooth="yes"/>
      <point x="1166" y="1211"/>
      <point x="1171" y="1190"/>
      <point x="1173" y="979" type="curve" smooth="yes"/>
      <point x="1174" y="908" type="line"/>
      <point x="1285" y="908" type="line"/>
      <point x="1283" y="985" type="line" smooth="yes"/>
      <point x="1276" y="1281"/>
      <point x="1203" y="1319"/>
      <point x="881" y="1319" type="curve" smooth="yes"/>
      <point x="532" y="1319"/>
      <point x="495" y="1242"/>
      <point x="495" y="875" type="curve" smooth="yes"/>
      <point x="495" y="721" type="line" smooth="yes"/>
      <point x="495" y="287"/>
      <point x="549" y="219"/>
    </contour>
    <contour>
      <point x="889" y="-1" type="curve" smooth="yes"/>
      <point x="527" y="-1"/>
      <point x="184" y="131"/>
      <point x="184" y="618" type="curve" smooth="yes"/>
      <point x="184" y="867" type="line" smooth="yes"/>
      <point x="184" y="1399"/>
      <point x="529" y="1514"/>
      <point x="900" y="1514" type="curve" smooth="yes"/>
      <point x="1276" y="1514"/>
      <point x="1618" y="1393"/>
      <point x="1618" y="859" type="curve" smooth="yes"/>
      <point x="1618" y="626" type="line" smooth="yes"/>
      <point x="1618" y="119"/>
      <point x="1285" y="-1"/>
    </contour>
    <contour>
      <point x="913" y="-95" type="curve" smooth="yes"/>
      <point x="1347" y="-95"/>
      <point x="1733" y="69"/>
      <point x="1733" y="617" type="curve" smooth="yes"/>
      <point x="1733" y="868" type="line" smooth="yes"/>
      <point x="1733" y="1449"/>
      <point x="1339" y="1610"/>
      <point x="902" y="1610" type="curve" smooth="yes"/>
      <point x="463" y="1610"/>
      <point x="68" y="1451"/>
      <point x="68" y="870" type="curve" smooth="yes"/>
      <point x="68" y="617" type="line" smooth="yes"/>
      <point x="68" y="68"/>
      <point x="467" y="-95"/>
    </contour>
  </outline>
</glyph>
<glyph name="guillemotleft" format="1">
  <advance width="1715"/>
  <unicode hex="00AB"/>
  <outline>
    <contour>
      <point x="713" y="261" type="curve" smooth="yes"/>
      <point x="751" y="261"/>
      <point x="778" y="292"/>
      <point x="778" y="326" type="curve" smooth="yes"/>
      <point x="778" y="344"/>
      <point x="770" y="363"/>
      <point x="753" y="380" type="curve" smooth="yes"/>
      <point x="331" y="782" type="line"/>
      <point x="753" y="1184" type="line"/>
      <point x="770" y="1205"/>
      <point x="778" y="1225"/>
      <point x="778" y="1237" type="curve" smooth="yes"/>
      <point x="778" y="1277"/>
      <point x="750" y="1308"/>
      <point x="713" y="1302" type="curve"/>
      <point x="698" y="1308"/>
      <point x="682" y="1298"/>
      <point x="663" y="1282" type="curve" smooth="yes"/>
      <point x="163" y="890" type="line" smooth="yes"/>
      <point x="117" y="855"/>
      <point x="94" y="823"/>
      <point x="94" y="782" type="curve" smooth="yes"/>
      <point x="94" y="746"/>
      <point x="115" y="711"/>
      <point x="163" y="674" type="curve" smooth="yes"/>
      <point x="663" y="281" type="line" smooth="yes"/>
      <point x="680" y="267"/>
      <point x="698" y="261"/>
    </contour>
    <contour>
      <point x="1256" y="261" type="curve" smooth="yes"/>
      <point x="1293" y="261"/>
      <point x="1320" y="292"/>
      <point x="1320" y="326" type="curve" smooth="yes"/>
      <point x="1320" y="344"/>
      <point x="1312" y="363"/>
      <point x="1295" y="380" type="curve" smooth="yes"/>
      <point x="873" y="782" type="line"/>
      <point x="1295" y="1184" type="line"/>
      <point x="1312" y="1205"/>
      <point x="1320" y="1225"/>
      <point x="1320" y="1237" type="curve" smooth="yes"/>
      <point x="1320" y="1277"/>
      <point x="1293" y="1308"/>
      <point x="1256" y="1302" type="curve"/>
      <point x="1240" y="1308"/>
      <point x="1225" y="1298"/>
      <point x="1205" y="1282" type="curve" smooth="yes"/>
      <point x="705" y="890" type="line" smooth="yes"/>
      <point x="660" y="855"/>
      <point x="636" y="823"/>
      <point x="636" y="782" type="curve" smooth="yes"/>
      <point x="636" y="746"/>
      <point x="658" y="711"/>
      <point x="705" y="674" type="curve" smooth="yes"/>
      <point x="1205" y="281" type="line" smooth="yes"/>
      <point x="1223" y="267"/>
      <point x="1240" y="261"/>
    </contour>
  </outline>
</glyph>
<glyph name="logicalnot" format="1">
  <advance width="1160"/>
  <unicode hex="00AC"/>
  <outline>
    <contour>
      <point x="886" y="256" type="line"/>
      <point x="1027" y="256" type="line"/>
      <point x="1027" y="751" type="line"/>
      <point x="120" y="751" type="line"/>
      <point x="120" y="625" type="line"/>
      <point x="886" y="625" type="line"/>
    </contour>
  </outline>
</glyph>
<glyph name="registered" format="1">
  <advance width="1798"/>
  <unicode hex="00AE"/>
  <outline>
    <contour>
      <point x="583" y="265" type="line"/>
      <point x="685" y="265" type="line"/>
      <point x="684" y="731" type="line"/>
      <point x="937" y="731" type="line" smooth="yes"/>
      <point x="1108" y="731"/>
      <point x="1143" y="685"/>
      <point x="1141" y="482" type="curve" smooth="yes"/>
      <point x="1141" y="266" type="line"/>
      <point x="1244" y="266" type="line"/>
      <point x="1244" y="604" type="line" smooth="yes"/>
      <point x="1244" y="712"/>
      <point x="1197" y="767"/>
      <point x="1081" y="777" type="curve"/>
      <point x="1081" y="777" type="line"/>
      <point x="1196" y="797"/>
      <point x="1252" y="865"/>
      <point x="1252" y="1014" type="curve" smooth="yes"/>
      <point x="1252" y="1017" type="line" smooth="yes"/>
      <point x="1252" y="1224"/>
      <point x="1168" y="1266"/>
      <point x="889" y="1266" type="curve" smooth="yes"/>
      <point x="583" y="1266" type="line"/>
    </contour>
    <contour>
      <point x="891" y="-1" type="curve" smooth="yes"/>
      <point x="529" y="-1"/>
      <point x="186" y="131"/>
      <point x="186" y="618" type="curve" smooth="yes"/>
      <point x="186" y="867" type="line" smooth="yes"/>
      <point x="186" y="1399"/>
      <point x="531" y="1514"/>
      <point x="902" y="1514" type="curve" smooth="yes"/>
      <point x="1278" y="1514"/>
      <point x="1619" y="1393"/>
      <point x="1619" y="859" type="curve" smooth="yes"/>
      <point x="1619" y="626" type="line" smooth="yes"/>
      <point x="1619" y="119"/>
      <point x="1287" y="-1"/>
    </contour>
    <contour>
      <point x="915" y="-95" type="curve" smooth="yes"/>
      <point x="1349" y="-95"/>
      <point x="1735" y="69"/>
      <point x="1735" y="617" type="curve" smooth="yes"/>
      <point x="1735" y="868" type="line" smooth="yes"/>
      <point x="1735" y="1449"/>
      <point x="1341" y="1610"/>
      <point x="904" y="1610" type="curve" smooth="yes"/>
      <point x="465" y="1610"/>
      <point x="70" y="1451"/>
      <point x="70" y="870" type="curve" smooth="yes"/>
      <point x="70" y="617" type="line" smooth="yes"/>
      <point x="70" y="68"/>
      <point x="469" y="-95"/>
    </contour>
    <contour>
      <point x="684" y="820" type="line"/>
      <point x="684" y="1169" type="line"/>
      <point x="934" y="1169" type="line" smooth="yes"/>
      <point x="1078" y="1169"/>
      <point x="1140" y="1161"/>
      <point x="1140" y="977" type="curve" smooth="yes"/>
      <point x="1140" y="1021" type="line" smooth="yes"/>
      <point x="1140" y="845"/>
      <point x="1107" y="820"/>
      <point x="897" y="820" type="curve" smooth="yes"/>
    </contour>
  </outline>
</glyph>
<glyph name="degree" format="1">
  <advance width="840"/>
  <unicode hex="00B0"/>
  <outline>
    <contour>
      <point x="423" y="1145" type="curve" smooth="yes"/>
      <point x="326" y="1145"/>
      <point x="264" y="1209"/>
      <point x="264" y="1314" type="curve" smooth="yes"/>
      <point x="264" y="1416"/>
      <point x="326" y="1481"/>
      <point x="423" y="1481" type="curve" smooth="yes"/>
      <point x="522" y="1481"/>
      <point x="584" y="1416"/>
      <point x="584" y="1314" type="curve" smooth="yes"/>
      <point x="584" y="1209"/>
      <point x="522" y="1145"/>
    </contour>
    <contour>
      <point x="423" y="1042" type="curve" smooth="yes"/>
      <point x="608" y="1042"/>
      <point x="725" y="1142"/>
      <point x="725" y="1315" type="curve" smooth="yes"/>
      <point x="725" y="1486"/>
      <point x="608" y="1586"/>
      <point x="423" y="1586" type="curve" smooth="yes"/>
      <point x="238" y="1586"/>
      <point x="120" y="1486"/>
      <point x="120" y="1315" type="curve" smooth="yes"/>
      <point x="120" y="1142"/>
      <point x="238" y="1042"/>
    </contour>
  </outline>
</glyph>
<glyph name="twosuperior" format="1">
  <advance width="1216"/>
  <unicode hex="00B2"/>
  <outline>
    <contour>
      <point x="256" y="418" type="line"/>
      <point x="1040" y="418" type="line"/>
      <point x="1040" y="552" type="line"/>
      <point x="415" y="552" type="line"/>
      <point x="415" y="681"/>
      <point x="413" y="766"/>
      <point x="648" y="843" type="curve" smooth="yes"/>
      <point x="821" y="896"/>
      <point x="1058" y="918"/>
      <point x="1058" y="1160" type="curve" smooth="yes"/>
      <point x="1058" y="1426"/>
      <point x="915" y="1493"/>
      <point x="653" y="1493" type="curve" smooth="yes"/>
      <point x="410" y="1493"/>
      <point x="249" y="1432"/>
      <point x="249" y="1162" type="curve" smooth="yes"/>
      <point x="249" y="1120" type="line"/>
      <point x="426" y="1143" type="line"/>
      <point x="426" y="1181" type="line" smooth="yes"/>
      <point x="426" y="1271"/>
      <point x="438" y="1342"/>
      <point x="662" y="1341" type="curve" smooth="yes"/>
      <point x="869" y="1340"/>
      <point x="893" y="1292"/>
      <point x="893" y="1203" type="curve" smooth="yes"/>
      <point x="893" y="1143" type="line" smooth="yes"/>
      <point x="893" y="1043"/>
      <point x="830" y="1023"/>
      <point x="637" y="967" type="curve" smooth="yes"/>
      <point x="344" y="885"/>
      <point x="256" y="801"/>
      <point x="256" y="539" type="curve" smooth="yes"/>
    </contour>
  </outline>
</glyph>
<glyph name="paragraph" format="1">
  <advance width="1083"/>
  <unicode hex="00B6"/>
  <outline>
    <contour>
      <point x="415" y="1474" type="line" smooth="yes"/>
      <point x="134" y="1474"/>
      <point x="18" y="1360"/>
      <point x="18" y="1144" type="curve" smooth="yes"/>
      <point x="18" y="936"/>
      <point x="206" y="828"/>
      <point x="517" y="828" type="curve"/>
      <point x="517" y="-262" type="line"/>
      <point x="625" y="-262" type="line"/>
      <point x="625" y="1494" type="line"/>
      <point x="844" y="1494" type="line"/>
      <point x="844" y="-262" type="line"/>
      <point x="939" y="-262" type="line"/>
      <point x="939" y="1474" type="line"/>
    </contour>
  </outline>
</glyph>
<glyph name="periodcentered" format="1">
  <advance width="455"/>
  <unicode hex="00B7"/>
  <outline>
    <contour>
      <point x="-36" y="632" type="move" name="_mid"/>
    </contour>
    <contour>
      <point x="342" y="466" type="curve" smooth="yes"/>
      <point x="431" y="466"/>
      <point x="480" y="533"/>
      <point x="480" y="617" type="curve" smooth="yes"/>
      <point x="480" y="700"/>
      <point x="424" y="768"/>
      <point x="342" y="768" type="curve" smooth="yes"/>
      <point x="254" y="768"/>
      <point x="205" y="702"/>
      <point x="205" y="617" type="curve" smooth="yes"/>
      <point x="205" y="535"/>
      <point x="262" y="466"/>
    </contour>
  </outline>
</glyph>
<glyph name="onesuperior" format="1">
  <advance width="789"/>
  <unicode hex="00B9"/>
  <outline>
    <contour>
      <point x="365" y="363" type="line"/>
      <point x="529" y="363" type="line"/>
      <point x="529" y="1474" type="line"/>
      <point x="437" y="1474" type="line"/>
      <point x="380" y="1439"/>
      <point x="311" y="1419"/>
      <point x="221" y="1419" type="curve"/>
      <point x="221" y="1298" type="line"/>
      <point x="365" y="1298" type="line"/>
    </contour>
  </outline>
</glyph>
<glyph name="guillemotright" format="1">
  <advance width="1714"/>
  <unicode hex="00BB"/>
  <outline>
    <contour>
      <point x="277" y="261" type="curve" smooth="yes"/>
      <point x="292" y="261"/>
      <point x="310" y="267"/>
      <point x="327" y="281" type="curve" smooth="yes"/>
      <point x="827" y="674" type="line" smooth="yes"/>
      <point x="875" y="711"/>
      <point x="896" y="746"/>
      <point x="896" y="782" type="curve" smooth="yes"/>
      <point x="896" y="823"/>
      <point x="873" y="855"/>
      <point x="827" y="890" type="curve" smooth="yes"/>
      <point x="327" y="1282" type="line" smooth="yes"/>
      <point x="308" y="1298"/>
      <point x="293" y="1308"/>
      <point x="277" y="1302" type="curve"/>
      <point x="240" y="1308"/>
      <point x="212" y="1277"/>
      <point x="212" y="1237" type="curve" smooth="yes"/>
      <point x="212" y="1225"/>
      <point x="217" y="1202"/>
      <point x="237" y="1184" type="curve" smooth="yes"/>
      <point x="659" y="782" type="line"/>
      <point x="237" y="380" type="line" smooth="yes"/>
      <point x="220" y="363"/>
      <point x="212" y="344"/>
      <point x="212" y="326" type="curve" smooth="yes"/>
      <point x="212" y="292"/>
      <point x="239" y="261"/>
    </contour>
    <contour>
      <point x="819" y="261" type="curve" smooth="yes"/>
      <point x="835" y="261"/>
      <point x="852" y="267"/>
      <point x="870" y="281" type="curve" smooth="yes"/>
      <point x="1369" y="674" type="line" smooth="yes"/>
      <point x="1417" y="711"/>
      <point x="1439" y="746"/>
      <point x="1439" y="782" type="curve" smooth="yes"/>
      <point x="1439" y="823"/>
      <point x="1415" y="855"/>
      <point x="1369" y="890" type="curve" smooth="yes"/>
      <point x="870" y="1282" type="line" smooth="yes"/>
      <point x="850" y="1298"/>
      <point x="835" y="1308"/>
      <point x="819" y="1302" type="curve"/>
      <point x="782" y="1308"/>
      <point x="755" y="1277"/>
      <point x="755" y="1237" type="curve" smooth="yes"/>
      <point x="755" y="1225"/>
      <point x="760" y="1202"/>
      <point x="780" y="1184" type="curve" smooth="yes"/>
      <point x="1202" y="782" type="line"/>
      <point x="780" y="380" type="line" smooth="yes"/>
      <point x="763" y="363"/>
      <point x="755" y="344"/>
      <point x="755" y="326" type="curve" smooth="yes"/>
      <point x="755" y="292"/>
      <point x="782" y="261"/>
    </contour>
  </outline>
</glyph>
<glyph name="dotlessi" format="1">
  <advance width="446"/>
  <unicode hex="0131"/>
  <outline>
    <contour>
      <point x="227" y="1077" type="move" name="top"/>
    </contour>
    <contour>
      <point x="230" y="0" type="move" name="ogonek"/>
    </contour>
    <contour>
      <point x="153" y="1067" type="line"/>
      <point x="153" y="0" type="line"/>
      <point x="313" y="0" type="line"/>
      <point x="313" y="1067" type="line"/>
    </contour>
  </outline>
</glyph>
<glyph name="kgreenlandic" format="1">
  <advance width="1126"/>
  <unicode hex="0138"/>
  <outline>
    <contour>
      <point x="157" y="0" type="line"/>
      <point x="317" y="0" type="line"/>
      <point x="317" y="457" type="line"/>
      <point x="407" y="555" type="line"/>
      <point x="808" y="0" type="line"/>
      <point x="989" y="0" type="line"/>
      <point x="531" y="604" type="line"/>
      <point x="952" y="1067" type="line"/>
      <point x="764" y="1067" type="line"/>
      <point x="495" y="748" type="line" smooth="yes"/>
      <point x="435" y="673"/>
      <point x="377" y="625"/>
      <point x="316" y="556" type="curve"/>
      <point x="316" y="612"/>
      <point x="317" y="653"/>
      <point x="317" y="711" type="curve" smooth="yes"/>
      <point x="317" y="1068" type="line"/>
      <point x="157" y="1049" type="line"/>
    </contour>
  </outline>
</glyph>
<glyph name="Lslash" format="1">
  <advance width="987"/>
  <unicode hex="0141"/>
  <outline>
    <component base="L"/>
    <contour>
      <point x="47" y="531" type="line"/>
      <point x="648" y="853" type="line"/>
      <point x="648" y="1024" type="line"/>
      <point x="47" y="702" type="line"/>
    </contour>
  </outline>
</glyph>
<glyph name="lslash" format="1">
  <advance width="595"/>
  <unicode hex="0142"/>
  <outline>
    <component base="l" xOffset="33"/>
    <contour>
      <point x="54" y="836" type="line"/>
      <point x="507" y="1007" type="line"/>
      <point x="507" y="1126" type="line"/>
      <point x="54" y="957" type="line"/>
    </contour>
  </outline>
</glyph>
<glyph name="Eng" format="1">
  <advance width="1387"/>
  <unicode hex="014A"/>
  <outline>
    <contour>
      <point x="816" y="-374" type="line"/>
      <point x="1135" y="-374"/>
      <point x="1229" y="-279"/>
      <point x="1229" y="10" type="curve" smooth="yes"/>
      <point x="1229" y="1474" type="line"/>
      <point x="1078" y="1474" type="line"/>
      <point x="1078" y="285" type="line"/>
      <point x="333" y="1474" type="line"/>
      <point x="159" y="1474" type="line"/>
      <point x="159" y="0" type="line"/>
      <point x="310" y="0" type="line"/>
      <point x="310" y="1247" type="line"/>
      <point x="1084" y="47" type="line"/>
      <point x="1084" y="-71" type="line"/>
      <point x="1088" y="-182"/>
      <point x="1086" y="-253"/>
      <point x="827" y="-253" type="curve"/>
    </contour>
  </outline>
</glyph>
<glyph name="florin" format="1">
  <advance width="835"/>
  <unicode hex="0192"/>
  <outline>
    <contour>
      <point x="283" y="-319" type="curve" smooth="yes"/>
      <point x="469" y="-315"/>
      <point x="496" y="-222"/>
      <point x="496" y="-56" type="curve" smooth="yes"/>
      <point x="496" y="757" type="line"/>
      <point x="694" y="757" type="line"/>
      <point x="694" y="887" type="line"/>
      <point x="496" y="887" type="line"/>
      <point x="495" y="1256" type="line" smooth="yes"/>
      <point x="495" y="1372"/>
      <point x="495" y="1392"/>
      <point x="626" y="1392" type="curve" smooth="yes"/>
      <point x="652" y="1392"/>
      <point x="678" y="1391"/>
      <point x="704" y="1389" type="curve"/>
      <point x="704" y="1543" type="line"/>
      <point x="641" y="1555"/>
      <point x="581" y="1561"/>
      <point x="528" y="1561" type="curve" smooth="yes"/>
      <point x="366" y="1561"/>
      <point x="297" y="1484"/>
      <point x="298" y="1259" type="curve" smooth="yes"/>
      <point x="299" y="887" type="line"/>
      <point x="137" y="887" type="line"/>
      <point x="137" y="757" type="line"/>
      <point x="299" y="757" type="line"/>
      <point x="299" y="-167" type="line"/>
      <point x="131" y="-167" type="line"/>
      <point x="131" y="-299" type="line"/>
      <point x="221" y="-315"/>
      <point x="255" y="-319"/>
    </contour>
  </outline>
</glyph>
<glyph name="dotlessj" format="1">
  <advance width="511"/>
  <unicode hex="0237"/>
  <outline>
    <contour>
      <point x="290" y="1077" type="move" name="top"/>
    </contour>
    <contour>
      <point x="209" y="1067" type="line"/>
      <point x="209" y="-64" type="line" smooth="yes"/>
      <point x="209" y="-206"/>
      <point x="131" y="-183"/>
      <point x="42" y="-188" type="curve"/>
      <point x="44" y="-292" type="line"/>
      <point x="79" y="-296"/>
      <point x="110" y="-298"/>
      <point x="134" y="-298" type="curve" smooth="yes"/>
      <point x="322" y="-298"/>
      <point x="368" y="-200"/>
      <point x="368" y="56" type="curve" smooth="yes"/>
      <point x="368" y="1067" type="line"/>
    </contour>
  </outline>
</glyph>
<glyph name="circumflex" format="1">
  <advance width="749"/>
  <unicode hex="02C6"/>
  <outline>
    <contour>
      <point x="362" y="1077" type="move" name="_top"/>
    </contour>
    <contour>
      <point x="637" y="1281" type="curve" smooth="yes"/>
      <point x="652" y="1293"/>
      <point x="652" y="1313"/>
      <point x="643" y="1326" type="curve" smooth="yes"/>
      <point x="458" y="1620" type="line" smooth="yes"/>
      <point x="433" y="1657"/>
      <point x="403" y="1669"/>
      <point x="369" y="1669" type="curve" smooth="yes"/>
      <point x="335" y="1669"/>
      <point x="305" y="1657"/>
      <point x="280" y="1620" type="curve" smooth="yes"/>
      <point x="95" y="1326" type="line" smooth="yes"/>
      <point x="87" y="1314"/>
      <point x="86" y="1292"/>
      <point x="101" y="1280" type="curve" smooth="yes"/>
      <point x="114" y="1270"/>
      <point x="137" y="1268"/>
      <point x="145" y="1278" type="curve" smooth="yes"/>
      <point x="369" y="1514" type="line"/>
      <point x="593" y="1278" type="line" smooth="yes"/>
      <point x="601" y="1268"/>
      <point x="623" y="1270"/>
    </contour>
  </outline>
</glyph>
<glyph name="uni02C9" format="1">
  <advance width="614"/>
  <unicode hex="02C9"/>
  <outline>
    <contour>
      <point x="295" y="1077" type="move" name="_top"/>
    </contour>
    <contour>
      <point x="8" y="1405" type="line"/>
      <point x="8" y="1293" type="line"/>
      <point x="581" y="1293" type="line"/>
      <point x="581" y="1405" type="line"/>
    </contour>
  </outline>
</glyph>
<glyph name="dotaccent" format="1">
  <advance width="379"/>
  <unicode hex="02D9"/>
  <outline>
    <contour>
      <point x="183" y="1077" type="move" name="_top"/>
    </contour>
    <contour>
      <point x="183" y="1377" type="curve" smooth="yes"/>
      <point x="243" y="1377"/>
      <point x="307" y="1410"/>
      <point x="307" y="1504" type="curve" smooth="yes"/>
      <point x="307" y="1593"/>
      <point x="244" y="1629"/>
      <point x="183" y="1629" type="curve" smooth="yes"/>
      <point x="125" y="1629"/>
      <point x="61" y="1597"/>
      <point x="61" y="1504" type="curve" smooth="yes"/>
      <point x="61" y="1414"/>
      <point x="123" y="1377"/>
    </contour>
  </outline>
</glyph>
<glyph name="ogonek" format="1">
  <advance width="680"/>
  <unicode hex="02DB"/>
  <outline>
    <contour>
      <point x="399" y="0" type="move" name="_ogonek"/>
    </contour>
    <contour>
      <point x="352" y="0" type="line"/>
      <point x="191" y="-168"/>
      <point x="87" y="-265"/>
      <point x="87" y="-421" type="curve" smooth="yes"/>
      <point x="87" y="-523"/>
      <point x="166" y="-549"/>
      <point x="254" y="-549" type="curve" smooth="yes"/>
      <point x="372" y="-549"/>
      <point x="510" y="-496"/>
      <point x="551" y="-445" type="curve"/>
      <point x="517" y="-386" type="line"/>
      <point x="481" y="-404"/>
      <point x="404" y="-438"/>
      <point x="344" y="-438" type="curve" smooth="yes"/>
      <point x="302" y="-438"/>
      <point x="269" y="-421"/>
      <point x="269" y="-359" type="curve" smooth="yes"/>
      <point x="269" y="-246"/>
      <point x="349" y="-110"/>
      <point x="455" y="0" type="curve"/>
    </contour>
  </outline>
</glyph>
<glyph name="hungarumlaut" format="1">
  <advance width="1061"/>
  <unicode hex="02DD"/>
  <outline>
    <contour>
      <point x="310" y="1077" type="move" name="_top"/>
    </contour>
    <contour>
      <point x="72" y="1320" type="curve" smooth="yes"/>
      <point x="53" y="1310"/>
      <point x="430" y="1458"/>
      <point x="447" y="1462" type="curve" smooth="yes"/>
      <point x="493" y="1479"/>
      <point x="514" y="1519"/>
      <point x="514" y="1554" type="curve" smooth="yes"/>
      <point x="514" y="1599"/>
      <point x="480" y="1643"/>
      <point x="418" y="1643" type="curve" smooth="yes"/>
      <point x="386" y="1643"/>
      <point x="360" y="1626"/>
      <point x="338" y="1608" type="curve" smooth="yes"/>
      <point x="306" y="1580"/>
      <point x="43" y="1306"/>
      <point x="60" y="1328" type="curve" smooth="yes"/>
      <point x="64" y="1333"/>
      <point x="65" y="1319"/>
      <point x="63" y="1322" type="curve" smooth="yes"/>
      <point x="61" y="1325"/>
      <point x="76" y="1322"/>
    </contour>
    <contour>
      <point x="487" y="1320" type="curve" smooth="yes"/>
      <point x="468" y="1310"/>
      <point x="845" y="1458"/>
      <point x="862" y="1462" type="curve" smooth="yes"/>
      <point x="908" y="1479"/>
      <point x="929" y="1519"/>
      <point x="929" y="1554" type="curve" smooth="yes"/>
      <point x="929" y="1599"/>
      <point x="895" y="1643"/>
      <point x="833" y="1643" type="curve" smooth="yes"/>
      <point x="801" y="1643"/>
      <point x="775" y="1626"/>
      <point x="753" y="1608" type="curve" smooth="yes"/>
      <point x="721" y="1580"/>
      <point x="458" y="1306"/>
      <point x="475" y="1328" type="curve" smooth="yes"/>
      <point x="479" y="1333"/>
      <point x="480" y="1319"/>
      <point x="478" y="1322" type="curve" smooth="yes"/>
      <point x="476" y="1325"/>
      <point x="490" y="1321"/>
    </contour>
  </outline>
</glyph>
<glyph name="uni0307" format="1">
  <advance width="417"/>
  <unicode hex="0307"/>
  <outline>
    <contour>
      <point x="210" y="1077" type="move" name="_top"/>
    </contour>
    <contour>
      <point x="123" y="1670" type="curve" smooth="yes"/>
      <point x="123" y="1691"/>
      <point x="112" y="1439"/>
      <point x="102" y="1439" type="curve" smooth="yes"/>
      <point x="91" y="1439"/>
      <point x="299" y="1429"/>
      <point x="299" y="1408" type="curve" smooth="yes"/>
      <point x="299" y="1387"/>
      <point x="308" y="1638"/>
      <point x="318" y="1638" type="curve" smooth="yes"/>
      <point x="329" y="1638"/>
      <point x="123" y="1649"/>
    </contour>
  </outline>
</glyph>
<glyph name="dblgravecmb" format="1">
  <advance width="1062"/>
  <unicode hex="030F"/>
  <outline>
    <contour>
      <point x="690" y="1077" type="move" name="_top"/>
    </contour>
    <contour>
      <point x="505" y="1320" type="curve" smooth="yes"/>
      <point x="502" y="1321"/>
      <point x="516" y="1325"/>
      <point x="515" y="1322" type="curve"/>
      <point x="512" y="1319"/>
      <point x="514" y="1333"/>
      <point x="518" y="1328" type="curve" smooth="yes"/>
      <point x="534" y="1306"/>
      <point x="271" y="1580"/>
      <point x="240" y="1608" type="curve" smooth="yes"/>
      <point x="218" y="1626"/>
      <point x="191" y="1643"/>
      <point x="160" y="1643" type="curve" smooth="yes"/>
      <point x="97" y="1643"/>
      <point x="64" y="1599"/>
      <point x="64" y="1554" type="curve" smooth="yes"/>
      <point x="64" y="1519"/>
      <point x="84" y="1479"/>
      <point x="130" y="1462" type="curve" smooth="yes"/>
      <point x="147" y="1458"/>
      <point x="525" y="1310"/>
    </contour>
    <contour>
      <point x="920" y="1320" type="curve" smooth="yes"/>
      <point x="917" y="1322"/>
      <point x="931" y="1325"/>
      <point x="929" y="1322" type="curve" smooth="yes"/>
      <point x="927" y="1319"/>
      <point x="929" y="1333"/>
      <point x="933" y="1328" type="curve" smooth="yes"/>
      <point x="949" y="1306"/>
      <point x="686" y="1580"/>
      <point x="654" y="1608" type="curve" smooth="yes"/>
      <point x="633" y="1626"/>
      <point x="606" y="1643"/>
      <point x="575" y="1643" type="curve" smooth="yes"/>
      <point x="512" y="1643"/>
      <point x="479" y="1599"/>
      <point x="479" y="1554" type="curve" smooth="yes"/>
      <point x="479" y="1519"/>
      <point x="499" y="1479"/>
      <point x="545" y="1462" type="curve" smooth="yes"/>
      <point x="562" y="1458"/>
      <point x="939" y="1310"/>
    </contour>
  </outline>
</glyph>
<glyph name="breveinvertedcomb" format="1">
  <advance width="790"/>
  <unicode hex="0311"/>
  <outline>
    <contour>
      <point x="413" y="1077" type="move" name="_top"/>
    </contour>
    <contour>
      <point x="123" y="1254" type="curve"/>
      <point x="249" y="1254" type="line"/>
      <point x="249" y="1373"/>
      <point x="294" y="1427"/>
      <point x="392" y="1427" type="curve" smooth="yes"/>
      <point x="489" y="1427"/>
      <point x="535" y="1373"/>
      <point x="535" y="1254" type="curve"/>
      <point x="660" y="1254" type="line"/>
      <point x="660" y="1446"/>
      <point x="575" y="1533"/>
      <point x="392" y="1533" type="curve" smooth="yes"/>
      <point x="208" y="1533"/>
      <point x="123" y="1446"/>
    </contour>
  </outline>
</glyph>
<glyph name="Delta" format="1">
  <advance width="1366"/>
  <unicode hex="0394"/>
  <outline>
    <contour>
      <point x="60" y="0" type="line"/>
      <point x="1303" y="0" type="line"/>
      <point x="749" y="1474" type="line"/>
      <point x="582" y="1474" type="line"/>
    </contour>
    <contour>
      <point x="218" y="129" type="line"/>
      <point x="614" y="1271" type="line"/>
      <point x="1012" y="129" type="line"/>
    </contour>
  </outline>
</glyph>
<glyph name="Sigma" format="1">
  <advance width="1170"/>
  <unicode hex="03A3"/>
  <outline>
    <contour>
      <point x="121" y="0" type="line"/>
      <point x="1092" y="0" type="line"/>
      <point x="1092" y="186" type="line"/>
      <point x="322" y="186" type="line"/>
      <point x="810" y="725" type="line"/>
      <point x="810" y="827" type="line"/>
      <point x="338" y="1290" type="line"/>
      <point x="1044" y="1290" type="line"/>
      <point x="1044" y="1474" type="line"/>
      <point x="121" y="1474" type="line"/>
      <point x="121" y="1291" type="line"/>
      <point x="618" y="766" type="line"/>
      <point x="121" y="205" type="line"/>
    </contour>
  </outline>
</glyph>
<glyph name="emdash" format="1">
  <advance width="1783"/>
  <unicode hex="2014"/>
  <outline>
    <contour>
      <point x="135" y="598" type="line"/>
      <point x="1647" y="598" type="line"/>
      <point x="1647" y="749" type="line"/>
      <point x="135" y="749" type="line"/>
    </contour>
  </outline>
</glyph>
<glyph name="daggerdbl" format="1">
  <advance width="1175"/>
  <unicode hex="2021"/>
  <outline>
    <contour>
      <point x="589" y="-38" type="curve" smooth="yes"/>
      <point x="678" y="-38"/>
      <point x="732" y="19"/>
      <point x="732" y="112" type="curve" smooth="yes"/>
      <point x="732" y="186"/>
      <point x="688" y="335"/>
      <point x="653" y="464" type="curve"/>
      <point x="690" y="452"/>
      <point x="799" y="380"/>
      <point x="940" y="380" type="curve" smooth="yes"/>
      <point x="1004" y="380"/>
      <point x="1044" y="436"/>
      <point x="1044" y="496" type="curve" smooth="yes"/>
      <point x="1044" y="572"/>
      <point x="997" y="611"/>
      <point x="916" y="611" type="curve" smooth="yes"/>
      <point x="876" y="611"/>
      <point x="789" y="587"/>
      <point x="652" y="528" type="curve"/>
      <point x="652" y="975" type="line"/>
      <point x="783" y="916"/>
      <point x="868" y="892"/>
      <point x="913" y="892" type="curve" smooth="yes"/>
      <point x="991" y="892"/>
      <point x="1044" y="925"/>
      <point x="1044" y="991" type="curve" smooth="yes"/>
      <point x="1044" y="1083"/>
      <point x="1005" y="1124"/>
      <point x="926" y="1124" type="curve" smooth="yes"/>
      <point x="888" y="1124"/>
      <point x="799" y="1099"/>
      <point x="653" y="1039" type="curve"/>
      <point x="688" y="1188"/>
      <point x="732" y="1319"/>
      <point x="732" y="1394" type="curve" smooth="yes"/>
      <point x="732" y="1482"/>
      <point x="677" y="1541"/>
      <point x="589" y="1541" type="curve" smooth="yes"/>
      <point x="500" y="1541"/>
      <point x="445" y="1484"/>
      <point x="445" y="1391" type="curve" smooth="yes"/>
      <point x="445" y="1299"/>
      <point x="517" y="1072"/>
      <point x="525" y="1038" type="curve"/>
      <point x="391" y="1097"/>
      <point x="303" y="1124"/>
      <point x="261" y="1124" type="curve" smooth="yes"/>
      <point x="178" y="1124"/>
      <point x="131" y="1084"/>
      <point x="131" y="1007" type="curve" smooth="yes"/>
      <point x="131" y="926"/>
      <point x="175" y="892"/>
      <point x="261" y="892" type="curve" smooth="yes"/>
      <point x="303" y="892"/>
      <point x="391" y="918"/>
      <point x="526" y="976" type="curve"/>
      <point x="526" y="527" type="line"/>
      <point x="394" y="585"/>
      <point x="307" y="611"/>
      <point x="263" y="611" type="curve" smooth="yes"/>
      <point x="176" y="611"/>
      <point x="131" y="575"/>
      <point x="131" y="495" type="curve" smooth="yes"/>
      <point x="131" y="417"/>
      <point x="179" y="380"/>
      <point x="262" y="380" type="curve" smooth="yes"/>
      <point x="305" y="380"/>
      <point x="392" y="407"/>
      <point x="525" y="465" type="curve"/>
      <point x="468" y="253"/>
      <point x="445" y="187"/>
      <point x="445" y="109" type="curve" smooth="yes"/>
      <point x="445" y="19"/>
      <point x="501" y="-38"/>
    </contour>
  </outline>
</glyph>
<glyph name="bullet" format="1">
  <advance width="899"/>
  <unicode hex="2022"/>
  <outline>
    <contour>
      <point x="453" y="313" type="curve" smooth="yes"/>
      <point x="653" y="313"/>
      <point x="774" y="476"/>
      <point x="774" y="655" type="curve" smooth="yes"/>
      <point x="774" y="825"/>
      <point x="660" y="996"/>
      <point x="455" y="996" type="curve" smooth="yes"/>
      <point x="246" y="996"/>
      <point x="123" y="813"/>
      <point x="123" y="652" type="curve" smooth="yes"/>
      <point x="123" y="485"/>
      <point x="252" y="313"/>
    </contour>
  </outline>
</glyph>
<glyph name="ellipsis" format="1">
  <advance width="1600"/>
  <unicode hex="2026"/>
  <outline>
    <contour>
      <point x="259" y="-37" type="curve" smooth="yes"/>
      <point x="345" y="-37"/>
      <point x="392" y="29"/>
      <point x="392" y="109" type="curve" smooth="yes"/>
      <point x="392" y="185"/>
      <point x="339" y="255"/>
      <point x="259" y="255" type="curve" smooth="yes"/>
      <point x="170" y="255"/>
      <point x="124" y="188"/>
      <point x="124" y="109" type="curve" smooth="yes"/>
      <point x="124" y="29"/>
      <point x="179" y="-37"/>
    </contour>
    <contour>
      <point x="801" y="-37" type="curve" smooth="yes"/>
      <point x="888" y="-37"/>
      <point x="934" y="29"/>
      <point x="934" y="109" type="curve" smooth="yes"/>
      <point x="934" y="195"/>
      <point x="880" y="255"/>
      <point x="799" y="255" type="curve" smooth="yes"/>
      <point x="718" y="255"/>
      <point x="665" y="188"/>
      <point x="665" y="110" type="curve" smooth="yes"/>
      <point x="665" y="34"/>
      <point x="719" y="-37"/>
    </contour>
    <contour>
      <point x="1341" y="-37" type="curve" smooth="yes"/>
      <point x="1428" y="-37"/>
      <point x="1475" y="29"/>
      <point x="1475" y="109" type="curve" smooth="yes"/>
      <point x="1475" y="178"/>
      <point x="1423" y="255"/>
      <point x="1357" y="255" type="curve" smooth="yes"/>
      <point x="1254" y="255"/>
      <point x="1208" y="196"/>
      <point x="1208" y="109" type="curve" smooth="yes"/>
      <point x="1208" y="23"/>
      <point x="1260" y="-37"/>
    </contour>
  </outline>
</glyph>
<glyph name="guilsinglleft" format="1">
  <advance width="797"/>
  <unicode hex="2039"/>
  <outline>
    <contour>
      <point x="676" y="261" type="curve" smooth="yes"/>
      <point x="713" y="261"/>
      <point x="740" y="292"/>
      <point x="740" y="326" type="curve" smooth="yes"/>
      <point x="740" y="344"/>
      <point x="732" y="363"/>
      <point x="715" y="380" type="curve" smooth="yes"/>
      <point x="293" y="782" type="line"/>
      <point x="715" y="1184" type="line" smooth="yes"/>
      <point x="735" y="1202"/>
      <point x="740" y="1225"/>
      <point x="740" y="1237" type="curve" smooth="yes"/>
      <point x="740" y="1277"/>
      <point x="713" y="1308"/>
      <point x="676" y="1302" type="curve"/>
      <point x="660" y="1308"/>
      <point x="645" y="1298"/>
      <point x="625" y="1282" type="curve" smooth="yes"/>
      <point x="125" y="890" type="line" smooth="yes"/>
      <point x="79" y="855"/>
      <point x="56" y="823"/>
      <point x="56" y="782" type="curve" smooth="yes"/>
      <point x="56" y="746"/>
      <point x="77" y="711"/>
      <point x="125" y="674" type="curve" smooth="yes"/>
      <point x="625" y="281" type="line" smooth="yes"/>
      <point x="642" y="267"/>
      <point x="660" y="261"/>
    </contour>
  </outline>
</glyph>
<glyph name="guilsinglright" format="1">
  <advance width="798"/>
  <unicode hex="203A"/>
  <outline>
    <contour>
      <point x="121" y="261" type="curve" smooth="yes"/>
      <point x="137" y="261"/>
      <point x="155" y="267"/>
      <point x="172" y="281" type="curve" smooth="yes"/>
      <point x="672" y="674" type="line" smooth="yes"/>
      <point x="720" y="711"/>
      <point x="741" y="746"/>
      <point x="741" y="782" type="curve" smooth="yes"/>
      <point x="741" y="823"/>
      <point x="718" y="855"/>
      <point x="672" y="890" type="curve" smooth="yes"/>
      <point x="172" y="1282" type="line" smooth="yes"/>
      <point x="153" y="1298"/>
      <point x="137" y="1308"/>
      <point x="122" y="1302" type="curve"/>
      <point x="84" y="1308"/>
      <point x="57" y="1277"/>
      <point x="57" y="1237" type="curve" smooth="yes"/>
      <point x="57" y="1225"/>
      <point x="62" y="1202"/>
      <point x="82" y="1184" type="curve" smooth="yes"/>
      <point x="504" y="782" type="line"/>
      <point x="82" y="380" type="line" smooth="yes"/>
      <point x="65" y="363"/>
      <point x="57" y="344"/>
      <point x="57" y="326" type="curve" smooth="yes"/>
      <point x="57" y="292"/>
      <point x="84" y="261"/>
    </contour>
  </outline>
</glyph>
<glyph name="fraction" format="1">
  <advance width="968"/>
  <unicode hex="2044"/>
  <outline>
    <contour>
      <point x="93" y="0" type="line"/>
      <point x="212" y="0" type="line"/>
      <point x="882" y="1474" type="line"/>
      <point x="768" y="1474" type="line"/>
    </contour>
  </outline>
</glyph>
<glyph name="trademark" format="1">
  <advance width="1181"/>
  <unicode hex="2122"/>
  <outline>
    <contour>
      <point x="577" y="901" type="line"/>
      <point x="660" y="901" type="line"/>
      <point x="660" y="1335" type="line"/>
      <point x="798" y="901" type="line"/>
      <point x="904" y="901" type="line"/>
      <point x="1045" y="1335" type="line"/>
      <point x="1045" y="901" type="line"/>
      <point x="1142" y="901" type="line"/>
      <point x="1142" y="1474" type="line"/>
      <point x="1020" y="1474" type="line"/>
      <point x="864" y="1017" type="line"/>
      <point x="699" y="1474" type="line"/>
      <point x="577" y="1474" type="line"/>
    </contour>
    <contour>
      <point x="204" y="901" type="line"/>
      <point x="308" y="901" type="line"/>
      <point x="308" y="1398" type="line"/>
      <point x="461" y="1398" type="line"/>
      <point x="461" y="1474" type="line"/>
      <point x="49" y="1474" type="line"/>
      <point x="49" y="1398" type="line"/>
      <point x="204" y="1398" type="line"/>
    </contour>
  </outline>
</glyph>
<glyph name="estimated" format="1">
  <advance width="1201"/>
  <unicode hex="212E"/>
  <outline>
    <contour>
      <point x="663" y="-20" type="curve" smooth="yes"/>
      <point x="870" y="-20"/>
      <point x="1005" y="70"/>
      <point x="1105" y="188" type="curve"/>
      <point x="1053" y="239" type="line"/>
      <point x="955" y="134"/>
      <point x="843" y="53"/>
      <point x="663" y="53" type="curve" smooth="yes"/>
      <point x="433" y="53"/>
      <point x="350" y="245"/>
      <point x="349" y="521" type="curve"/>
      <point x="1113" y="521" type="line"/>
      <point x="1113" y="869"/>
      <point x="965" y="1102"/>
      <point x="645" y="1102" type="curve" smooth="yes"/>
      <point x="322" y="1102"/>
      <point x="92" y="861"/>
      <point x="92" y="541" type="curve" smooth="yes"/>
      <point x="92" y="221"/>
      <point x="280" y="-20"/>
    </contour>
    <contour>
      <point x="351" y="601" type="line"/>
      <point x="366" y="863"/>
      <point x="478" y="1042"/>
      <point x="651" y="1042" type="curve" smooth="yes"/>
      <point x="860" y="1042"/>
      <point x="901" y="836"/>
      <point x="901" y="601" type="curve"/>
    </contour>
  </outline>
</glyph>
<glyph name="partialdiff" format="1">
  <advance width="1165"/>
  <unicode hex="2202"/>
  <outline>
    <contour>
      <point x="531" y="-24" type="curve" smooth="yes"/>
      <point x="971" y="-24"/>
      <point x="1066" y="404"/>
      <point x="1066" y="674" type="curve" smooth="yes"/>
      <point x="1066" y="1057"/>
      <point x="888" y="1432"/>
      <point x="329" y="1432" type="curve"/>
      <point x="315" y="1297" type="line"/>
      <point x="703" y="1297"/>
      <point x="862" y="1001"/>
      <point x="867" y="767" type="curve"/>
      <point x="811" y="864"/>
      <point x="714" y="908"/>
      <point x="607" y="908" type="curve" smooth="yes"/>
      <point x="266" y="908"/>
      <point x="114" y="600"/>
      <point x="114" y="395" type="curve" smooth="yes"/>
      <point x="114" y="173"/>
      <point x="252" y="-24"/>
    </contour>
    <contour>
      <point x="560" y="135" type="curve" smooth="yes"/>
      <point x="429" y="135"/>
      <point x="326" y="225"/>
      <point x="326" y="397" type="curve" smooth="yes"/>
      <point x="326" y="521"/>
      <point x="398" y="747"/>
      <point x="610" y="747" type="curve" smooth="yes"/>
      <point x="708" y="747"/>
      <point x="772" y="697"/>
      <point x="859" y="592" type="curve"/>
      <point x="860" y="583"/>
      <point x="860" y="574"/>
      <point x="860" y="565" type="curve" smooth="yes"/>
      <point x="860" y="446"/>
      <point x="802" y="135"/>
    </contour>
  </outline>
</glyph>
<glyph name="summation" format="1">
  <advance width="1291"/>
  <unicode hex="2211"/>
  <outline>
    <contour>
      <point x="158" y="-21" type="line"/>
      <point x="1123" y="-21" type="line"/>
      <point x="1123" y="133" type="line"/>
      <point x="341" y="133" type="line"/>
      <point x="887" y="670" type="line"/>
      <point x="887" y="782" type="line"/>
      <point x="346" y="1327" type="line"/>
      <point x="1128" y="1327" type="line"/>
      <point x="1128" y="1474" type="line"/>
      <point x="158" y="1474" type="line"/>
      <point x="158" y="1318" type="line"/>
      <point x="730" y="721" type="line"/>
      <point x="158" y="151" type="line"/>
    </contour>
  </outline>
</glyph>
<glyph name="uni2219" format="1">
  <advance width="484"/>
  <unicode hex="2219"/>
  <outline>
    <contour>
      <point x="184" y="554" type="line"/>
      <point x="307" y="554" type="line"/>
      <point x="307" y="728" type="line"/>
      <point x="184" y="728" type="line"/>
    </contour>
  </outline>
</glyph>
<glyph name="integral" format="1">
  <advance width="878"/>
  <unicode hex="222B"/>
  <outline>
    <contour>
      <point x="131" y="-304" type="curve" smooth="yes"/>
      <point x="312" y="-304"/>
      <point x="428" y="-255"/>
      <point x="453" y="36" type="curve" smooth="yes"/>
      <point x="566" y="1343" type="line" smooth="yes"/>
      <point x="578" y="1479"/>
      <point x="593" y="1504"/>
      <point x="678" y="1504" type="curve" smooth="yes"/>
      <point x="708" y="1504"/>
      <point x="749" y="1492"/>
      <point x="780" y="1475" type="curve"/>
      <point x="849" y="1623" type="line"/>
      <point x="805" y="1648"/>
      <point x="722" y="1674"/>
      <point x="666" y="1674" type="curve" smooth="yes"/>
      <point x="485" y="1674"/>
      <point x="370" y="1625"/>
      <point x="345" y="1334" type="curve" smooth="yes"/>
      <point x="231" y="27" type="line" smooth="yes"/>
      <point x="219" y="-109"/>
      <point x="204" y="-134"/>
      <point x="119" y="-134" type="curve" smooth="yes"/>
      <point x="89" y="-134"/>
      <point x="48" y="-123"/>
      <point x="17" y="-105" type="curve"/>
      <point x="-53" y="-254" type="line"/>
      <point x="-9" y="-278"/>
      <point x="75" y="-304"/>
    </contour>
  </outline>
</glyph>
<glyph name="notequal" format="1">
  <advance width="533"/>
  <unicode hex="2260"/>
  <outline>
    <contour>
      <point x="86" y="174" type="line"/>
      <point x="265" y="174" type="line"/>
      <point x="349" y="414" type="line"/>
      <point x="752" y="414" type="line"/>
      <point x="752" y="603" type="line"/>
      <point x="415" y="603" type="line"/>
      <point x="480" y="792" type="line"/>
      <point x="752" y="792" type="line"/>
      <point x="752" y="981" type="line"/>
      <point x="546" y="981" type="line"/>
      <point x="631" y="1224" type="line"/>
      <point x="453" y="1224" type="line"/>
      <point x="368" y="981" type="line"/>
      <point x="-84" y="981" type="line"/>
      <point x="-84" y="792" type="line"/>
      <point x="302" y="792" type="line"/>
      <point x="236" y="603" type="line"/>
      <point x="-84" y="603" type="line"/>
      <point x="-84" y="414" type="line"/>
      <point x="170" y="414" type="line"/>
    </contour>
  </outline>
</glyph>
<glyph name="lessequal" format="1">
  <advance width="1027"/>
  <unicode hex="2264"/>
  <outline>
    <contour>
      <point x="986" y="231" type="line"/>
      <point x="986" y="394" type="line"/>
      <point x="279" y="581" type="line"/>
      <point x="986" y="750" type="line"/>
      <point x="986" y="966" type="line"/>
      <point x="30" y="667" type="line"/>
      <point x="30" y="493" type="line"/>
    </contour>
    <contour>
      <point x="28" y="0" type="line"/>
      <point x="998" y="0" type="line"/>
      <point x="998" y="108" type="line"/>
      <point x="28" y="108" type="line"/>
    </contour>
  </outline>
</glyph>
<glyph name="lozenge" format="1">
  <advance width="1027"/>
  <unicode hex="25CA"/>
  <outline>
    <contour>
      <point x="446" y="0" type="line"/>
      <point x="569" y="0" type="line"/>
      <point x="1005" y="682" type="line"/>
      <point x="569" y="1368" type="line"/>
      <point x="446" y="1368" type="line"/>
      <point x="22" y="682" type="line"/>
    </contour>
    <contour>
      <point x="515" y="228" type="line"/>
      <point x="241" y="682" type="line"/>
      <point x="515" y="1141" type="line"/>
      <point x="792" y="682" type="line"/>
    </contour>
  </outline>
</glyph>
<glyph name="caron.alt" format="1">
  <advance width="539"/>
  <outline>
    <contour>
      <point x="24" y="1077" type="move" name="_caron.alt"/>
    </contour>
    <contour>
      <point x="213" y="1520" type="curve" smooth="yes"/>
      <point x="213" y="1414"/>
      <point x="256" y="1360"/>
      <point x="352" y="1356" type="curve"/>
      <point x="352" y="1262"/>
      <point x="303" y="1188"/>
      <point x="226" y="1184" type="curve"/>
      <point x="226" y="1132" type="line"/>
      <point x="406" y="1132"/>
      <point x="499" y="1303"/>
      <point x="499" y="1468" type="curve" smooth="yes"/>
      <point x="499" y="1595"/>
      <point x="420" y="1641"/>
      <point x="351" y="1641" type="curve" smooth="yes"/>
      <point x="282" y="1641"/>
      <point x="213" y="1593"/>
    </contour>
  </outline>
</glyph>
